<?xml version="1.0" encoding="UTF-8" standalone="no"?><!DOCTYPE svg PUBLIC "-//W3C//DTD SVG 1.1//EN" "http://www.w3.org/Graphics/SVG/1.1/DTD/svg11.dtd"><svg width="100%" height="100%" viewBox="0 0 500 500" version="1.1" xmlns="http://www.w3.org/2000/svg" xmlns:xlink="http://www.w3.org/1999/xlink" xml:space="preserve" xmlns:serif="http://www.serif.com/" style="fill-rule:evenodd;clip-rule:evenodd;stroke-linejoin:round;stroke-miterlimit:1.41421;"><g><circle cx="250" cy="250" r="247.5" style="fill:#217821;"/><path d="M71.838,269.777c-4.099,0.248 -7.454,3.183 -9.506,6.556c-3.682,5.806 -6.817,12.042 -8.612,18.685c-2.595,10.625 -2.033,22.004 1.443,32.357c5.077,14.431 16.187,26.805 30.285,32.869c9.163,3.897 19.527,4.29 29.285,2.746c11.196,-1.882 22.008,-6.802 30.525,-14.308c4.733,-4.722 8.638,-10.317 11.505,-16.364c0.798,-2.024 1.806,-4.137 1.748,-6.345c-0.568,-3.078 -3.007,-5.587 -5.957,-6.578c-2.027,-0.771 -4.506,-1.001 -6.314,0.416c-3.454,2.376 -5.205,6.321 -7.36,9.746c-3.818,5.407 -8.758,10.215 -14.627,13.371c-8.106,4.023 -17.666,5.064 -26.511,3.163c-10.931,-2.546 -19.912,-10.722 -25.06,-20.511c-2.005,-3.853 -3.599,-8.025 -3.605,-12.431c-0.135,-6.806 -0.499,-14.091 2.823,-20.26c2.49,-4.573 6.775,-8.099 8.346,-13.167c0.947,-2.535 -0.042,-5.419 -1.902,-7.245c-1.641,-1.812 -4.062,-2.863 -6.506,-2.7Zm157.577,93.422c-1.159,-0.59 -2.678,-1.853 -3.377,-2.805c-1.244,-1.695 -1.275,-2.457 -1.44,-34.82l-0.169,-33.088l-11.529,-0.166l-11.53,-0.167l12.145,-42.352c6.679,-23.293 12.15,-42.559 12.158,-42.812c0.008,-0.253 -0.914,-0.461 -2.048,-0.461l-2.062,0l-4.772,16.726c-10.578,37.075 -10.485,36.839 -14.793,37.647c-4.305,0.807 -9.456,-2.734 -9.456,-6.502c0,-2.639 15.152,-54.966 17.198,-59.394c3.233,-6.996 9.901,-12.263 17.304,-13.667c4.248,-0.806 30.1,-0.747 34.567,0.079c7.408,1.37 13.691,6.188 17.064,13.086c0.955,1.952 5.324,16.021 9.711,31.265c7.709,26.792 7.948,27.796 7.165,30.115c-0.954,2.822 -3.048,4.552 -6.115,5.05c-2.795,0.454 -6.421,-1.182 -7.515,-3.389c-0.436,-0.883 -3.947,-12.72 -7.798,-26.307l-7.003,-24.701l-2.207,-0.007l-2.206,-0.006l12.18,42.455c6.699,23.351 12.181,42.685 12.181,42.966c0,0.281 -5.11,0.511 -11.355,0.511l-11.355,0l-0.014,32.071c-0.013,30.199 -0.081,32.221 -1.181,34.643c-1.27,2.798 -4.77,5.1 -7.751,5.1c-2.106,0 -5.756,-2.087 -7.32,-4.185c-1.187,-1.591 -1.233,-2.743 -1.397,-34.638l-0.169,-32.991l-4.234,0l-0.169,32.793c-0.166,32.179 -0.193,32.826 -1.453,34.527c-3.125,4.215 -7.241,5.467 -11.255,3.419l-0.001,0.005l0.001,0Z" style="fill:#fff;fill-rule:nonzero;"/><path d="M311.006,363.047c-1.157,-1.157 -1.228,-2.047 -1.228,-15.345l0,-14.117l-12.889,0l0.006,-1.689c0.015,-4.381 4.644,-10.786 10.109,-13.989l2.775,-1.625l0,-18.605l-2.171,-1.841c-2.589,-2.198 -15.63,-23.299 -15.63,-25.291c0,-1.882 2.577,-3.557 4.163,-2.709c0.647,0.347 3.749,4.855 6.893,10.018l5.717,9.389l11.087,-0.12l11.087,-0.12l5.363,-8.78c2.949,-4.829 6.048,-9.305 6.885,-9.948c1.437,-1.102 1.609,-1.11 3.092,-0.139c0.863,0.566 1.569,1.556 1.569,2.202c0,0.918 -7.257,13.362 -13.463,23.084c-0.445,0.698 -1.741,1.908 -2.881,2.688l-2.07,1.419l0,19.482l2.411,2.412c2.149,2.149 5.974,9.051 7.082,12.78c0.402,1.352 0.306,1.382 -4.541,1.382l-4.952,0l0,27.676l-1.506,1.507c-1.825,1.825 -4.2,1.938 -5.859,0.279c-1.157,-1.156 -1.227,-2.046 -1.227,-15.345c0,-13.707 -0.036,-14.117 -1.228,-14.117c-1.191,0 -1.227,0.41 -1.227,13.839l0,13.838l-1.507,1.506c-1.826,1.824 -4.202,1.938 -5.86,0.279Zm62.775,-0.058c-1.478,-0.732 -3.194,-2.248 -3.99,-3.528l-1.396,-2.246l-0.307,-72.734l-0.307,-72.735l-4.297,0l-0.307,27.454l-0.307,27.454l-1.591,1.591c-4.18,4.178 -11.251,2.327 -12.83,-3.36c-0.858,-3.085 -0.812,-57.691 0.051,-62.362c1.407,-7.61 6.126,-13.653 13.326,-17.063l4.113,-1.949l50.945,0l4.113,1.949c7.361,3.487 12.085,9.668 13.351,17.471c0.364,2.243 0.636,15.024 0.638,30.03l0.006,26.126l3.662,-0.265c4.893,-0.354 7.347,0.179 10.463,2.271c6.407,4.304 9.388,14.849 4.878,17.263c-3.447,1.845 -7.955,-0.608 -7.955,-4.329c0,-1.318 -0.585,-2.501 -1.87,-3.786c-1.61,-1.61 -2.181,-1.82 -4.106,-1.507c-1.231,0.199 -2.806,0.932 -3.502,1.627c-1.247,1.247 -1.268,1.858 -1.571,45.683c-0.294,42.585 -0.354,44.474 -1.476,45.712c-1.562,1.726 -5.42,1.76 -7.117,0.064c-1.205,-1.205 -1.227,-2.046 -1.227,-46.3c0,-43.244 -0.046,-45.088 -1.131,-45.432c-0.621,-0.197 -1.795,-1.066 -2.609,-1.931l-1.477,-1.573l-0.308,-27.418l-0.306,-27.419l-4.297,0l-0.307,72.735l-0.307,72.735l-1.405,2.258c-1.628,2.619 -5.635,4.801 -8.82,4.801c-3.393,0 -7.284,-2.398 -8.925,-5.5l-1.413,-2.673l0,-85.124l-4.911,0l0,85.124l-1.413,2.673c-1.648,3.115 -5.535,5.5 -8.964,5.499c-1.211,-0.002 -3.37,-0.58 -4.797,-1.286Zm-277.697,-164.93c-3.892,0.139 -8.142,-0.037 -11.416,2.426c-3.74,2.289 -5.883,6.458 -6.365,10.729c-0.871,5.884 0.441,11.795 1.093,17.633c2.638,18.683 5.508,37.341 8.987,55.886c0.497,1.88 0.56,3.934 1.476,5.665c2.062,2.702 5.405,4.217 8.762,4.267c9.881,0.464 19.781,0.114 29.669,0.113c9.504,-0.074 19.007,-0.154 28.511,-0.226c2.313,7.412 5.699,14.426 8.711,21.57c2.995,6.805 5.769,13.707 8.571,20.576c1.72,3.579 3.551,7.389 6.725,9.884c2.645,1.666 6.014,0.895 8.86,0.182c5.02,-1.416 9.644,-4.051 14.6,-5.757c3.67,-1.532 7.875,-2.166 10.817,-5.015c1.978,-2.231 1.79,-5.462 1.396,-8.234c-0.279,-1.959 -1.601,-3.822 -3.637,-4.23c-4.595,-1.077 -9.391,0.124 -13.841,1.338c-3.186,0.913 -6.296,2.255 -9.583,2.724c-0.877,-0.482 -1.009,-1.764 -1.558,-2.559c-4.483,-9.829 -8.83,-19.752 -12.728,-29.827c-1.873,-4.776 -3.548,-9.7 -6.26,-14.058c-2.041,-2.921 -5.932,-3.115 -9.158,-3.444c-10.743,-0.621 -21.511,-0.139 -32.263,-0.059c-7.035,0.109 -14.069,0.223 -21.103,0.326c-1.11,-1.573 -2.806,-2.935 -3.195,-4.893c0.785,-0.741 2.151,-0.401 3.165,-0.611c12.825,-0.71 25.727,0.128 38.516,-1.062c3.452,-0.456 6.905,-2.682 7.747,-6.206c0.942,-3.255 0.217,-7.168 -2.595,-9.315c-3.085,-2.576 -7.212,-3.064 -11.095,-3.15c-12.816,-0.385 -25.642,-0.263 -38.461,-0.399c-1.115,-6.144 -2.196,-12.297 -2.95,-18.497c4.693,-1.879 9.718,-3.82 12.837,-7.986c3.764,-4.835 3.896,-11.608 2.029,-17.238c-1.678,-4.991 -6.441,-8.054 -11.118,-9.865c-1.64,-0.62 -3.409,-0.724 -5.146,-0.688Z" style="fill:#fff;fill-rule:nonzero;"/><path d="M315.239,283.077c-3.928,-2.643 -4.431,-8.125 -1.057,-11.5c3.42,-3.42 9.028,-2.76 11.538,1.358c1.563,2.562 1.576,5.162 0.041,7.679c-2.347,3.851 -6.882,4.912 -10.522,2.463Zm72.184,-105.347c-3.648,-1.009 -5.253,-1.9 -8.026,-4.456c-4.437,-4.089 -5.469,-6.559 -5.469,-13.087c0,-4.484 0.25,-5.993 1.325,-8.008c1.633,-3.061 6.259,-7.404 9.291,-8.724c3.073,-1.337 10.71,-1.287 13.815,0.091c3.157,1.401 7.604,5.594 9.156,8.634c1.773,3.472 2.142,9.728 0.81,13.738c-1.304,3.925 -5.553,8.737 -9.251,10.475c-3.103,1.459 -8.835,2.117 -11.651,1.337Zm-148.709,-2.18c-7.417,-2.316 -12.395,-9.242 -12.406,-17.26c-0.014,-9.765 6.907,-17.218 16.632,-17.914c5.599,-0.401 9.465,0.969 13.72,4.857c7.79,7.119 7.952,18.191 0.377,25.719c-5.11,5.079 -11.582,6.704 -18.323,4.598l0,0Z" style="fill:#fff;fill-rule:nonzero;"/></g></svg>