<?xml version="1.0" encoding="UTF-8" standalone="no"?>
<svg
   enable-background="new 0 0 753.8 175.9"
   version="1.1"
   viewBox="0 0 753.8 175.9"
   xml:space="preserve"
   id="svg29"
   sodipodi:docname="logo.svg"
   inkscape:version="1.3.2 (091e20e, 2023-11-25)"
   xmlns:inkscape="http://www.inkscape.org/namespaces/inkscape"
   xmlns:sodipodi="http://sodipodi.sourceforge.net/DTD/sodipodi-0.dtd"
   xmlns="http://www.w3.org/2000/svg"
   xmlns:svg="http://www.w3.org/2000/svg"><defs
   id="defs29" /><sodipodi:namedview
   id="namedview29"
   pagecolor="#ffffff"
   bordercolor="#000000"
   borderopacity="0.25"
   inkscape:showpageshadow="2"
   inkscape:pageopacity="0.0"
   inkscape:pagecheckerboard="0"
   inkscape:deskcolor="#d1d1d1"
   inkscape:zoom="2.3746639"
   inkscape:cx="582.39821"
   inkscape:cy="72.431304"
   inkscape:window-width="1312"
   inkscape:window-height="449"
   inkscape:window-x="0"
   inkscape:window-y="44"
   inkscape:window-maximized="0"
   inkscape:current-layer="svg29"
   showguides="true" />
  <style
   type="text/css"
   id="style1">
    .st0{fill:#ED3D63;}
    .st1{fill:#1B1464;}
  </style>
  <path
   class="st0"
   d="m700.1 56c-18.3 0-33 14.9-33 33.2 0 31.7 33 73.1 33 73.1s33-41.4 33-73.1c0-18.3-14.8-33.2-33-33.2zm0 49.4c-8.6 0-15.6-7-15.6-15.7s7-15.7 15.6-15.7 15.6 7 15.6 15.7c0 8.6-7 15.7-15.6 15.7z"
   id="path1" />
  <path
   class="st0"
   d="m715.7 30.4c0 8.7-7 15.7-15.6 15.7s-15.6-7-15.6-15.7 7-15.7 15.6-15.7c8.6-0.1 15.6 7 15.6 15.7z"
   id="path2" />
  
  
  
  
  
  
  
  
  
  
  
  
  
  
  
  
  
  
  <path
   class="st1"
   d="M 57.1,133.8 H 41.2 V 72.1 H 20.9 V 58.9 H 77.4 V 72.1 H 57.1 Z"
   id="path21" />
  <path
   class="st1"
   d="m 156.9,96.2 c 0,12.4 -3.1,21.9 -9.2,28.6 -6.1,6.7 -15,10 -26.4,10 -11.5,0 -20.3,-3.3 -26.4,-10 -6.1,-6.7 -9.2,-16.2 -9.2,-28.7 0,-12.5 3.1,-22 9.2,-28.5 6.2,-6.6 15,-9.9 26.5,-9.9 11.5,0 20.3,3.3 26.4,9.9 6.1,6.7 9.1,16.2 9.1,28.6 z m -54.6,0 c 0,8.4 1.6,14.7 4.8,18.9 3.2,4.2 7.9,6.3 14.2,6.3 12.7,0 19,-8.4 19,-25.2 0,-16.9 -6.3,-25.3 -18.9,-25.3 -6.3,0 -11.1,2.1 -14.3,6.4 -3.2,4.3 -4.8,10.6 -4.8,18.9 z"
   id="path22" />
  <path
   class="st1"
   d="M 172.4,133.8 V 58.9 h 15.9 v 74.9 z"
   id="path23" />
  <path
   class="st1"
   d="M 207.2,133.8 V 58.9 H 223 v 61.8 h 30.4 v 13.1 z"
   id="path24" />
  <path
   class="st1"
   d="M 309.5,133.8 H 266.4 V 58.9 h 43.1 v 13 h -27.2 v 16.4 h 25.4 v 13 h -25.4 v 19.3 h 27.2 z"
   id="path25" />
  <path
   class="st1"
   d="M 354,133.8 H 338.1 V 72.1 H 317.8 V 58.9 h 56.5 V 72.1 H 354 Z"
   id="path26" />
  <path
   class="st1"
   d="m 444.8,133.8 -18,-58.7 h -0.5 c 0.6,11.9 1,19.9 1,23.9 v 34.8 H 413.1 V 58.9 h 21.6 l 17.7,57.3 h 0.3 l 18.8,-57.3 h 21.6 v 74.9 H 478.3 V 98.4 c 0,-1.7 0,-3.6 0.1,-5.8 0.1,-2.2 0.3,-8 0.7,-17.4 h -0.5 l -19.3,58.6 z"
   id="path27" />
  <path
   class="st1"
   d="M 557.9,133.8 552.5,116 h -27.3 l -5.4,17.8 H 502.7 L 529,58.6 h 19.4 l 26.5,75.2 z m -9.3,-31.2 c -5,-16.2 -7.8,-25.3 -8.5,-27.4 -0.6,-2.1 -1.1,-3.8 -1.4,-5 -1.1,4.4 -4.4,15.2 -9.7,32.4 z"
   id="path28" />
  <path
   class="st1"
   d="m 636.1,82.3 c 0,8.1 -2.5,14.2 -7.6,18.5 -5,4.3 -12.2,6.4 -21.5,6.4 h -6.8 v 26.6 H 584.3 V 58.9 h 23.9 c 9.1,0 16,2 20.7,5.9 4.9,3.9 7.2,9.7 7.2,17.5 z m -35.8,11.8 h 5.2 c 4.9,0 8.5,-1 11,-2.9 2.4,-1.9 3.6,-4.7 3.6,-8.4 0,-3.7 -1,-6.5 -3,-8.2 -2,-1.8 -5.2,-2.7 -9.6,-2.7 h -7.2 z"
   id="path29" />
</svg>
