<svg version="1" xmlns="http://www.w3.org/2000/svg" width="2221.333" height="2221.333" viewBox="0 0 1666.000000 1666.000000"><path d="M777 372.6c-8.1 1.7-17.9 5.2-20.2 7.2-1 .8-1.8 1.1-1.8.6 0-.5-.4-.4-.8.1-.4.6-2.6 2.3-4.9 3.8-7.7 4.9-21.3 19.9-21.3 23.4 0 .5-.5 1.4-1.2 2.1-2.1 2.1-6.4 15.4-7.5 23.2-1.4 9.5-.6 24.4 1.6 31.8.5 1.8 1.1 3.6 1.2 4 1.2 4.8 4.9 12.2 9.5 19.2 10.5 16.1 28.8 27.6 49.1 30.9 5.6.9 21.7.8 25.8-.2 1.1-.3 3.4-.8 5-1.3 3.2-.7 16.7-6.4 17.5-7.4.3-.3 2.4-1.8 4.8-3.4 8.5-5.8 24.2-22.9 24.2-26.4 0-.7.5-1.2 1-1.2.6 0 1-.6 1-1.3 0-.6.7-2.5 1.5-4 7.1-13.7 8.1-37 2.3-52.2-1.7-4.5-6.8-14.9-7.6-15.5-.4-.3-2-2.3-3.6-4.5-4.7-6.5-15.2-16-21.4-19.5-1.5-.8-2.9-1.8-3.2-2.2-.8-1-11.3-5.5-14.5-6.2-1.6-.4-4.1-.9-5.5-1.3-4.9-1.3-24.5-1.1-31 .3zM1386.9 380.4c-.2.2-2.4.6-4.9.9-7.4 1-17.1 4.8-20.6 8.1-.6.6-2.2 1.8-3.4 2.6-4.3 2.8-18.7 17.5-21.6 22-1.6 2.5-3.3 4.8-3.7 5.1-.5.3-.9 1.2-1 2-.2.8-.5 1.8-.9 2.4-.3.5-1.2 2.8-1.8 5-1.6 5-2.2 43.5-.7 43.5.6 0 .8.3.4.6-.8.8 2.1 10 4.8 15.4 6.8 13.2 29.3 31.9 43 35.5 1.7.5 3.5 1 4 1.1 6.2 2 21.3 2.5 28.5 1 1.3-.3 4.2-.8 6.3-1.1 2.2-.4 5-1 6.3-1.5 1.3-.5 2.4-.8 2.4-.6 0 .9 12.8-5.9 16.5-8.7 9-6.9 24.5-25.3 24.5-29.1 0-.5.7-1.7 1.5-2.6.8-.9 1.6-2.5 1.8-3.6.2-1 .9-3.7 1.5-5.9.9-3.3 1.9-9.4 2.4-15 .1-2.2-1.2-19.2-1.7-21.5-.4-1.4-.9-3.8-1.1-5.4-1.5-7.9-9.4-20.3-18.6-29.2-6.3-6.1-17-14.4-18.5-14.4-.7 0-1.3-.5-1.3-1.2 0-.6-.3-.8-.7-.5-.3.4-1.2.2-1.9-.3-.6-.6-2-1.3-3-1.5-1.1-.2-3.7-.9-5.9-1.5-3.7-1-31.7-2.4-32.6-1.6zM744.8 538.5c-.1.1-5.2.5-11.3.8-6 .3-11.1.6-11.2.8-.5.3-9 2.3-10.5 2.4-.3 0-1 .3-1.4.7-.4.5-1.4.8-2.2.8-.8 0-3.6 1.1-6.3 2.5-2.7 1.3-4.9 2.2-4.9 1.9 0-.3-1.2.4-2.6 1.5-1.5 1.2-3.1 2.1-3.6 2.1-.8 0-6.4 3.8-9.4 6.5-.7.5-2.4 1.9-4 3-4.2 3-13.2 12.4-16.2 17-1.5 2.2-2.9 4.2-3.3 4.5-1.3 1.1-7.9 13.2-7.9 14.6 0 .7-.4 1.4-1 1.4-.5 0-.9.3-.8.7.3 1.4-1.4 6.7-2.6 8.2-.6.8-1 1.5-.8 1.5.2.1.1.8-.1 1.6-.3.8-1.9 6.2-3.7 12-1.8 5.8-3.5 11.2-3.8 12-.3.8-.6 1.7-.7 2 0 .3-.9 3.2-1.9 6.5-1.1 3.3-2 6.7-2.1 7.5-.1.8-.5 2.3-.9 3.2-.4.9-.9 2.2-1 3-.6 2.9-1.9 7.4-2.5 8.3-.3.5-.6 1.4-.8 2-.8 3.6-1.2 5.3-2.2 7.8-.6 1.5-1 3.1-.9 3.5.1.4-.2 1.4-.5 2.2-1.1 2.8-3.6 10.9-4.1 13.2-.3 1.3-1.6 5.8-3 10-1.3 4.3-2.2 7.8-1.9 7.8.3 0 .1.6-.4 1.2-.9 1.1-1.8 3.9-2.8 8.3-.3 1.1-3.1 11-4.5 16-4.4 15.2-6.1 21.3-6.5 23-.2 1.1-1.8 6.7-3.5 12.5s-3.3 11.3-3.5 12.2c-1.2 4.3-1.5 5.6-3 10.8-.9 3-1.8 6.6-2.1 8-.3 1.4-1.1 4.3-1.9 6.5-1.5 4.6-3 11.6-2.7 12.7.1.5-.2.8-.6.8-.4 0-.9 1.2-1 2.7-.1 1.6-.7 4.2-1.2 5.8-3.1 9.4-1.4 17.6 5 24.3 3.1 3.3 12 9.7 12 8.6 0-.3.6-.2 1.3.4.7.6 2.6 1.4 4.2 1.8 4.2 1 16.6 1 19 0 1.1-.5 2.7-1 3.5-1.2 2.2-.4 6.9-6.3 9.1-11.4 4.2-9.3 4.7-10.7 7.9-20 1.7-5.2 3.4-10.2 3.8-11 .7-1.9.6-1.8 1.6-6 .5-1.9 1.2-4.1 1.6-5 .7-1.2 3.9-12 5.5-18 .2-.8 1.1-4 2-7 .9-3 1.8-6.2 2-7.1.2-.9 1.8-6.3 3.5-12 1.8-5.6 3.4-11.4 3.6-12.7.3-1.4.9-3.3 1.5-4.4.5-1 .8-1.8.5-1.8-.3 0 .4-2.6 1.5-5.8 1.1-3.1 1.9-5.8 1.9-6-.1-.1.6-2.8 1.5-6 1-3.1 1.9-6.5 2-7.5.2-.9.7-2.2 1-2.7.3-.5.8-1.8 1-2.7.6-3.2 5.4-19.7 6.9-24.1.8-2.3 1.3-4.2 1.1-4.2-.2 0 .3-1.9 1.1-4.3.9-2.3 1.8-5.3 2-6.7.3-1.4.8-3.4 1.1-4.5.4-1.1.8-2.5.9-3.1.1-.6 1.3-4.8 2.7-9.5 1.4-4.6 3.2-10.7 3.9-13.4l1.4-5h7.9c9.3.1 9.7.6 7.1 8.9-3.2 10.1-16.7 58.2-17.2 61-.2 1.6-.9 3.5-1.5 4.2-.6.8-.9 1.4-.6 1.4.2 0-1.1 5.3-3 11.7-4.1 14.1-4.4 15.3-4.7 17.5-.1 1-.5 2.1-.9 2.4-.4.4-.7 1.7-.7 2.9s-.3 2.5-.7 2.9c-.4.3-.8 1.2-.9 1.9-.3 1.8-6.5 24-7.1 25.7-.8 2.1-1.1 3.1-1.8 6.4-.3 1.6-.8 3.3-1.1 3.8-.3.4-.7 1.6-.9 2.5-.2 1-2.2 8.3-4.5 16.3s-4.3 15.2-4.5 16c-.2.8-1.5 5.3-3 10-1.4 4.7-2.8 9.5-3.1 10.7-.2 1.2-.9 3.5-1.5 5-.6 1.6-1 2.8-.9 2.8.2 0-1.8 8.1-2.5 10.3-.3.7-.5 1.4-.5 1.7 0 .3-.6 2.1-1.4 4-.9 2-1.5 3.8-1.6 4 0 .3 0 .6-.1.7-.1.2-.2 1.4-.4 2.8s-1.8 7-3.5 12.5-3.3 11.1-3.6 12.5c-.2 1.4-.7 3.2-1 4-.9 2.6-9.6 32.4-10 34.5-.2 1.1-.8 3.1-1.3 4.5-.8 2.2-1.9 6.6-2.2 8.7-.1.5-.6 1.9-1.1 3.3-.5 1.4-1.1 3.2-1.4 4-2.8 11.1-3.9 14.6-4.8 15.2-.6.4-.8.8-.4.8.3 0-.3 3.2-1.4 7.1-1.1 3.9-1.7 7.3-1.3 7.7.6.6 7.4.8 59.5 1.6 16.8.2 31.4.5 32.5.5 2 .1 2.1.6 2.4 61.8.5 105.5.9 166.8 1.1 167.3.1.3.2.8.2 1.1-.3 2.1-.2 10.1.2 21.4.9 22.7 1.5 25.2 8.3 32 9.4 9.4 22 13.7 32.3 11.3 11.7-2.9 26.1-15.5 27.6-24.4 1.9-10.8 2.4-36 2.9-142.1.2-48 .6-87.6.8-88 .3-.5.1-1.7-.3-2.8-.4-1.1-.4-3.1 0-4.5s.4-3.4 0-4.5-.4-3.4.1-5.2c.4-1.8.3-3.6-.2-3.9-.5-.3-.6-1.3-.1-2.2.4-.9.7-5.2.6-9.5-.1-5.2.2-7.7 1-7.8 1.6-.1 11.7-.1 14.2 0 2.1.1 2.1.3 2.3 44.8.6 121.3 1.5 214.8 2.1 214.8.1 0 .3 2.7.5 6s.4 6 .5 6c.1 0 .3.8.5 1.9.6 2.9 4.7 8.2 9 11.5 2.2 1.7 4.5 3.5 5.2 4.1.7.5 1.7 1 2.3 1 .5 0 1 .5 1 1 0 .6.3.9.8.8.4-.1 2.5.7 4.7 1.7 2.5 1.1 6.4 1.9 10.5 1.9 5.4.1 7.6-.5 13.2-3.2 6.5-3.2 15.8-11.4 15.8-14 0-.6.4-1.2.8-1.2.8 0 3-5.9 3.8-10 2-9.8 2.3-28.4 2.4-156.3.1-60.9.4-110.7.8-110.7.4-.1 19.2-.3 41.7-.6 42-.4 48.5-.6 50.3-1.8.7-.4.3-3.2-1.3-8.1-1.3-4.2-2.4-7.9-2.4-8.3-.1-.4-.7-2.5-1.3-4.7-.6-2.2-1.3-4.7-1.4-5.5-.3-1.4-.9-3.6-4.9-17.4-.9-2.9-1.7-6.3-1.8-7.5-.1-1.1-.5-2.1-.9-2.1s-.8-.7-.8-1.7c0-.9-1.5-6.8-3.4-13.2-1.8-6.4-3.7-13-4.1-14.6-.5-1.7-.9-3.5-1.1-4-.2-.6-1-3.3-1.8-6-5.4-18.5-8-27.6-9.1-32-.7-2.8-2.9-10.9-5-18-3.8-13.2-4.1-14.2-4.5-16-.1-.6-.7-2.1-1.2-3.5s-1.1-3.2-1.3-4.1c-.4-1.8-4-14.8-5.4-19.4-2.9-9.3-9.3-32.1-9.4-33.7-.1-1-.4-1.8-.7-1.8-.4 0-.7-.6-.7-1.3 0-.6-1.5-6.2-3.3-12.2-1.7-6.1-3.4-11.7-3.6-12.5-.4-1.9-1.9-7-3.9-14-.9-3-1.8-6.2-2-7-.2-.8-.4-1.6-.5-1.8-.2-.1-.3-.5-.4-1-.2-.4-.8-2.7-1.5-5.2s-1.5-5.2-1.6-6c-.2-.8-.4-1.7-.6-2-.1-.3-.3-1-.3-1.5-.1-.6-.7-2.4-1.3-4-1.5-3.9-8-26.9-9.6-34-.2-.6-.6-1.6-1-2.3-.5-.6-.6-1.2-.3-1.2s-.2-1.6-1-3.5-1.1-3.5-.8-3.5c.4 0 .1-.7-.6-1.5s-1-1.5-.7-1.5c.4 0 0-1.8-.8-4s-1.1-4-.8-4c.4 0 .2-.5-.5-1.2s-1.2-2.2-1.2-3.4c0-2.2.3-2.3 8.8-2.1l8.9.2L893 667c3.4 12.4 7.1 25.2 8.1 28.4 1.1 3.3 1.9 6.7 1.9 7.6 0 .9.3 2 .7 2.4.4.3.9 1.7 1.1 2.9.4 2.7.7 3.7 1.5 5.7.3.8 3.5 11.8 7 24.5 3.6 12.6 7.7 27 9.2 32 1.5 4.9 2.9 10.1 3.1 11.4.3 1.4.7 2.8 1 3.3.3.4.7 1.6.9 2.5.5 2.3 6.5 23.3 7.3 25.3.3.8.4 1.9.3 2.3 0 .4.4 1.7 1 2.8.6 1.1 1.2 2.8 1.4 3.8.2 1 1.3 4.9 2.5 8.7 1.2 3.8 2.3 7.7 2.5 8.7.6 2.9 4.6 13.9 6.1 16.9 1.1 2.2 9.4 9 11.4 9.4.3 0 1.9.7 3.5 1.4 4.6 2 18.1 1.8 23-.5 11-5.1 17.8-14.5 18.1-25.3.1-4.9-1.1-13.3-2.7-18.2-.2-.7-.4-1.3-2.8-10.5-1.7-6.3-5.4-20.2-7.5-28-.1-.6-.9-3-1.6-5.5-.8-2.5-1.4-4.7-1.5-5-.5-2.3-1.9-7.6-3.5-13-2.9-9.4-13.1-45.2-13.5-47.3-.2-.9-.6-2.1-.9-2.5-.3-.5-.7-1.9-.9-3.3-.3-1.3-1.4-5.3-2.6-8.9-1.2-3.6-2.3-7.4-2.6-8.5-.9-3.8-16.8-56.6-18.3-60.5-.3-.8-.6-1.7-.7-2-1.7-6.6-7.2-22.9-9.7-29-2.6-6.2-7.5-15-11.2-20-5.2-7-16.2-18.1-17-17.3-.3.4-.6.1-.6-.5 0-1.3-12.4-9.6-17.5-11.8-1.9-.7-3.7-1.9-4-2.5-.4-.5-1.3-.8-2.1-.5-.7.3-1.6.1-1.8-.3-.4-.7-7.2-3-10.8-3.7-.5-.1-.9-.2-1-.4-.5-.3-4-.9-8.8-1.6-2.5-.3-6.1-.8-8-1-3.9-.6-107.6-1.4-108.2-.9zM1279.1 556.5c-20 10.3-30.2 18.4-40.4 32.3-6.6 9-13.4 23.8-15.2 33.1-.2 1.3-.6 3-.9 3.9-.8 2.6-1.8 18-2.1 32.7-.1 7.3-.6 13.8-.9 14.3-.3.6-.2 1.3.3 1.6.5.3.5 2.1.1 4.1-.5 2.1-.4 3.5.2 3.5.5 0 .7.4.4.8-1 1.6-1.4 6.2-.6 6.2.5 0 .5 1.2.1 2.7-.9 3.5-.8 146 .1 146.9.4.4.4 1.4-.1 2.3-.6 1.4-.7 3.6-.2 4.3.1.2.4 8 .6 17.4.2 9.3.9 19.1 1.5 21.7 1.6 7.2 6.5 14.3 12.5 18.2 3.8 2.5 7.5 4.5 7.5 4 0-.1 1.8.3 4.1.9 4.7 1.4 12.4.7 18.2-1.7 2-.9 4-1.6 4.3-1.6.3 0 3.3-2.7 6.7-6l6.1-6 .2-30.1c.2-16.6.5-30.8.8-31.5.3-.8.1-1.7-.5-2-.5-.4-.6-1.1-.3-1.7.6-.9.8-16 1.8-119.6.2-22.2.6-40.5.9-40.8.7-.8 16.7-1.1 16.8-.4.1.3.3 14.3.4 31.1.1 16.8.5 31.1.9 31.7.4.7.4 1.2-.1 1.2-1 0-.8 9.3.1 10.9.4.6.4 1.1-.1 1.1-.7 0-.7 12.5 0 20.7.2 1.8-.1 3.3-.5 3.3-.5 0-.4.8.1 1.9.6 1 .7 2.1.4 2.5-.7.6-.5 10 .2 13.7.2 1-.1 1.9-.6 1.9-.6 0-.8.4-.4.9 1 1.7 1.3 7.1.3 7.1-.5 0-.6.5-.2 1.1.6 1 1 77.6 1.8 307.4.1 47.9.6 87.6 1 88.3.4.7.4 1.2-.1 1.2-.4 0-.8 3.8-.8 8.5s.4 8.5.8 8.5c.5 0 .5.5.1 1.1-.9 1.6-1.1 12.8-.2 12.2.5-.2.4.7-.1 2-.6 1.4-.7 2.8-.4 3.1.9.9.9 8.6 0 8.6-.5 0-.6.4-.3.8.4.7.7 6.2.6 11.2-.1.8.1 4.5.2 8.3.2 3.7 0 6.7-.4 6.7s.2 2 1.4 4.5 2.6 4.5 3 4.5c.4 0 .8.7.8 1.5 0 3.1 16.6 17.5 20.3 17.5.7 0 1.7.3 2.1.7.4.4 1.9.9 3.3 1.1 1.5.2 3.4.7 4.2 1.1 1.8 1 13.1 1.2 14.6.3.6-.4 1.9-.8 2.9-.9 9.2-1.5 23.2-13.7 29-25.3l3.6-7.1v-351l2.3.2c1.2.2 2.8 0 3.5-.4.6-.5 1.2-.5 1.2 0 0 .4 2.9.7 6.5.5l6.5-.3v62.3c.1 34.3.1 113.3.1 175.7v113.5l3.7 6.9c6.3 11.8 13.8 18.8 26 24.2 6.4 2.8 19.5 2.6 26.5-.3 1.6-.7 3.5-1.2 4.3-1.2.8 0 1.4-.4 1.4-.9s.8-1.1 1.8-1.5c4.9-1.6 11.5-7.8 16.5-15.3 2.2-3.4 4.2-7 4.3-8 .2-1.4.4-15.2.3-24.3 0-3.6 2-398.5 2.1-404.8.1-8.3 0-12.8-.4-15.7-.1-1.1.1-3 .6-4.3.4-1.2.4-2.2 0-2.2-.9 0-.8-4.2.1-5.7.4-.7.3-1.4-.1-1.7-.9-.5-.6-7.7.3-10.4.2-.6.1-1.2-.3-1.2-.5 0-.7-1.5-.5-3.3.6-5 .6-5.1-.2-7-.4-1-.3-1.7.4-1.7s.8-.8.2-2.3c-.5-1.2-.5-3.1-.1-4.2s.3-2.8-.2-3.8c-.5-.9-.5-1.7-.1-1.7s.8-1.6.8-3.5-.3-3.5-.7-3.5c-.4 0-.3-1.1.2-2.5.6-1.7.6-2.5-.1-2.5-.6 0-.7-.5-.3-1.1 1-1.7 1.1-9.1.2-11.2-.5-.9-.5-1.7-.1-1.7s.8-3.6.8-8-.4-8-.9-8-.5-.6 0-1.3c.5-.6.9-14.8.9-31.4 0-19.5.4-30.3 1-30.4 1.1-.1 13.1-.1 15.5 0 1.3.1 1.5 4.1 1.7 28.9.4 87.2.9 115.7 1.8 116.4.6.5.5.8-.2.8-.9 0-1 .7-.3 2.5.5 1.3.6 2.7.1 2.9-.5.3-.6 1.8-.4 3.3.2 1.6.4 3.5.4 4.3-.1 2.5 0 10.2.3 39.3l.3 27.8 3.4 3.7c1.9 2 3.7 3.8 4.1 4 .3.2 1.7 1.2 3 2.3 1.2 1.2 3.5 2.7 4.9 3.5 2.5 1.3 3.6 3.6 4.5 9.4.9 5.1 1.5 74.1 1.9 210 .5 134.1.6 146.8 2 153.5 1.3 6.3 5.3 9.7 12.9 10.9 2.1.4 4.2.9 4.6 1.1.5.3 1.1.1 1.5-.5.4-.6 1-.8 1.4-.6 2.7 1.7 12.9-4.4 13.6-8.1.2-1 .4-1.8.5-1.8 1 0 2-23.6 2.5-58 .3-19.3.5-35.2.5-35.5.2-1.3.2-20.6 0-21.5-.1-.6-.1-1.2 0-1.5.2-.5.8-72.3 1.2-141.5.2-25.9.7-41.3 1.3-41.7.7-.5.7-.8 0-.8-.5 0-.9-2.1-.8-4.7 0-2.7.2-4.8.3-4.8.6 0 .4-6.8-.3-7.2-.4-.2-.5-.9-.1-1.4.3-.5.7-8.5.9-17.7.5-19.7 1.1-28 2.4-31.5 2.9-7.5 15.9-12.7 25.8-10.3 1.9.4 5 2.7 7.8 5.8 5.4 5.9 6.7 8.6 8.1 17.3.8 5.1 2.7 8.9 5.9 11.8 10.3 9.7 27.7 8.1 33-3 3.3-6.6 2.6-21.7-1.4-30.8-2.6-6-5.7-12-6.3-12.3-.5-.2-.8-.9-.8-1.5 0-1.2-4.7-7.1-10-12.6-3.1-3.3-11.4-9.3-15.8-11.4-4.3-2.1-12.9-4.5-16.7-4.7-8.2-.4-16.8-.2-24.7.4-7 .6-8.8.5-8.9-.6 0-.7-.1-41.4-.3-90.4-.1-48.9-.6-89.5-1-90.2-.4-.7-.2-1.2.4-1.2.7 0 .8-.6 0-1.9-.7-1.4-.7-2.2 0-2.6.6-.4.8-1.1.5-1.6-.4-.5-.8-8-1.1-16.7-.3-8.6-.7-17.7-.9-20.2-.5-6.2-3.5-20.3-4.6-21.5-.5-.5-.9-1.5-.9-2.2 0-.8-1.6-4.6-3.6-8.6-5.5-11-6.4-12.7-7.4-12.7-.5 0-1.2-.9-1.5-2-1.5-4.6-20.7-22-29-26.2-1.6-.8-6.6-3.3-11.1-5.6-4.4-2.3-9.4-4.7-11-5.4-2.3-.9-26.3-1.2-108.6-1.3l-105.7-.2-14 7.2z"/><path d="M165.6 609.7c-.2.2-2.5.5-5.2.7-6.4.5-14.2 2.4-17.6 4.2-1.6.8-2.8 1.2-2.8.7 0-.4-.4-.4-.8.2-.4.5-2.9 2.5-5.7 4.4-7.1 4.9-15.7 14-17 18-.3 1.2-1 2.1-1.4 2.1-.4 0-.8.6-.9 1.2 0 .7-1.2 4.2-2.5 7.8-1.4 3.6-2.9 9-3.4 12-1 6.6-1 36.7.1 43 .4 2.5.9 5.8 1.1 7.5.2 1.6.4 3 .5 3 0 0 .3 2.2.5 5 .1 2.7.6 7 1 9.5s.8 5.6 1 7c.2 2.2 1.7 12.5 3.1 22 .3 1.9.7 5.1 1 7 .2 1.9.6 4.6.9 6 .6 3.2 1.2 7.3 2 13.5.7 5.8 1.5 10.9 2.1 13.9.5 2.4 1.6 10.2 1.8 13.1.1 1.1.4 2.4.7 3 .3.5.7 3 .8 5.5.1 2.4.5 4.7.9 5 .4.3.7 1.8.8 3.5 0 2.9.9 9.9 1.7 14 .3 1.1.8 4.2 1.1 7 .4 2.7 1 6.3 1.3 8 .3 1.6.7 4.1.8 5.5.2 1.4.4 2.6.5 2.7.1.2.3 1.1.4 2 .1 1 .6 3.8 1 6.3s.9 5.6 1.1 7c.2 1.4 1.6 9.2 3 17.5 1.4 8.2 2.8 16.1 3 17.5.5 3.5 1.3 7.6 2.5 14 .6 3 1.3 7.1 1.6 9 .2 1.9.8 5.5 1.4 8 .5 2.5 1.4 7.2 2 10.5.5 3.3 1.2 7.1 1.5 8.5.3 1.4.8 3.8 1 5.5.5 3.1.8 4.6 2.4 10.5 2.1 8.1 5.1 12.2 13.1 17.6 6.9 4.7 15.1 7.4 25.3 8.1 8.8.7 151.5.8 164.5.1 3.4-.2 6.2-.1 6.2.2 0 .3 1.9.4 4.2.3 2.4-.1 4.3-.2 4.3-.3 0-.6 26.8-.3 27.2.3.2.4 1 .4 1.6 0 2-1.2 31.6-1.1 32.5.1.5.6 1.8 4.2 3.1 8.1 1.2 3.8 2.6 7.9 3.1 9 .4 1.1 2.2 5.8 4 10.5 3.7 9.3 14.1 34.2 17 40.5 1 2.2 6 13.7 10.9 25.5 5 11.8 9.6 22.3 10.1 23.2.6 1 1 2.5 1 3.3 0 .8.5 1.5 1.2 1.5.6 0 .9.3.6.6-.4.3.5 3.1 1.9 6.2 4.5 10.1 4.6 10.4 5.7 14.4.5 1.6 1.2 2.8 1.7 2.8s.8.3.8.7c-.1.5 0 1.1.1 1.5.1.5.3 1.1.4 1.5.1.5 1.6 4.2 3.4 8.4 4.7 11.3 5.5 13.3 5.6 13.9.1.3 2.5 5.2 5.5 11 11.7 22.9 21.8 33.5 32.9 34.4 2.6.3 5.2.5 5.7.6.6.1 1.2.2 1.5.1.3-.1 2.3-.4 4.5-.6 2.2-.2 5.1-.6 6.5-.9 1.4-.4 3.7-.8 5.2-1.1 5.5-1 29.3-10 35.9-13.5 2-1.1 3.9-1.7 4.3-1.3.3.3.6.1.6-.5 0-.7.3-1.1.8-1 .4.1 1.8-.3 3.2-.9 1.4-.6 2.8-1.1 3.2-1.2.5-.1 3.4-1.3 6.5-2.7 3.2-1.4 6.6-2.6 7.6-2.7.9-.1 1.7-.4 1.7-.7 0-.3 2.8-1.4 6.3-2.5 3.4-1.1 7.3-2.5 8.7-3.2 1.4-.7 3-1.3 3.7-1.3 2.1 0 13.7-5.3 18.3-8.4 4.9-3.3 9-7.2 9-8.7 0-.5.5-.9 1-.9.6 0 .9-.3.8-.8-.1-.4.5-2.1 1.2-3.7 1.7-4.1 1.7-22.9 0-27.5-.1-.3-.3-1-.4-1.5-.2-1.9-3.9-8-5.5-9.3-3.2-2.5-7.3-4.3-10.5-4.6-1.8-.2-3.7-.5-4.2-.8-1.2-.7-20-.2-24.4.6-1.9.4-7.5 1.6-12.5 2.7-4.9 1.1-9.4 2.1-10 2.2-.5.2-1.6.6-2.2 1-.7.5-1.3.6-1.3.2 0-.3-1.6.1-3.5.9-2 .9-3.8 1.5-4 1.6-.3 0-.7.1-1 .1-.3.1-.8.2-1.2.3-.5.1-3.7 1.2-7.3 2.4-3.6 1.2-10.2 3-14.7 4-9.6 2.2-9.4 2.3-13.6-6.8-1.4-3-4.1-9-6.1-13.3-2-4.3-3.6-8-3.6-8.2 0-.5-3.3-7.9-8.2-18.5-1.7-3.6-3.1-7.1-3.1-7.8 0-.6-.4-1.2-.9-1.2-.4 0-.8-.5-.8-1.2 0-.6-.9-3.2-2.1-5.7-5.4-12-6.9-15.6-13.7-32.1-6.1-15-7.4-18.1-7.7-19-.1-.3-.6-1.6-1.2-3s-2.3-5.7-3.8-9.5c-1.5-3.9-3.3-8.4-4.1-10.2-.8-1.7-1.4-3.6-1.4-4.1 0-.6-.8-2.5-1.7-4.4-2.9-5.8-3.3-6.8-3.3-7.7 0-.5-.9-3-2-5.5-1.1-2.6-1.9-4.7-1.8-4.9.1-.1-.5-1.3-1.2-2.7-.8-1.4-1.3-2.8-1.2-3.3.1-.4-.3-.7-.8-.7-.6 0-1-.5-1-1 0-2.1-8.2-17.2-11.5-21.3-2.7-3.3-12.7-8.8-16.7-9.2-1.8-.2-3.3-.4-3.3-.5 0-.3-4.1-1-9.5-1.5-18.1-1.8-57-2.1-126-1.1-23.4.3-55.6.8-71.7 1l-29.2.4-1.7-2.6c-.9-1.5-2.3-3.1-3.1-3.5-.7-.4-1.3-1.5-1.3-2.2 0-.8-.4-1.5-.8-1.5-1.1 0-5.2-7.4-5.2-9.3 0-1.9 2.5-2.8 8.9-3.3 8.4-.6 46-1.4 88.1-1.9 22.8-.3 46-.8 51.5-1.1 5.5-.3 12.6-.6 15.7-.7 3.2-.1 5.8-.4 5.8-.7 0-.3 1.6-.6 3.6-.7 2-.1 4.1-.7 4.8-1.2.7-.6 1.5-.8 1.9-.5.3.3 1.8-.2 3.4-1.2 7.1-4.4 10.9-7 11.6-8.1.4-.7 1.4-1.8 2.1-2.5 2.1-2.1 4.8-7.8 6.2-13 1.1-4.2 1.1-15.6.1-19.8-.9-3.5-4-10-4.8-10-.5 0-.9-.5-.9-1 0-3.8-17.5-14.8-26.2-16.4-1.3-.3-2.5-.5-2.8-.6-.3-.1-2-.2-3.7-.2-1.8 0-3.3-.3-3.3-.7 0-.4-1.7-.7-3.7-.8-27.8-.9-60.1-1.5-109.6-1.8-32.9-.2-60.1-.6-60.3-.8-.3-.3-.6-2.1-.7-4.1-.1-2-.5-3.6-1-3.6-.4 0-.6-.3-.5-.8.1-.4-.2-3.2-.7-6.2-.5-3-.9-6-1-6.5-.3-1.9-1.6-10-2-12-.2-1.1-.4-2-.5-2-.1 0-.3-1.1-.4-2.5-.4-3.2-1.6-11.7-2.2-15l-.9-6.3c-.4-3.3-1.1-7.9-2-14.5-.3-1.8.4-2.6 3.3-3.9 2.1-.9 4.2-1.7 4.7-1.8 2.6-.6 21.3-9.9 26.1-13 14.8-9.5 24.8-22.9 29-38.9 2-7.5 2.3-10.1 2.4-19.6 0-9.2-.3-11.3-3.1-24-4.4-19.8-22.9-37.2-49.4-46.5-3.8-1.3-8.7-1.8-19.8-2-8.1-.1-14.9 0-15.1.2zM1203.4 896.9c-2.4 1.5-7.1 6.4-11.2 11.6-2.7 3.6-13.2 19.9-13.2 20.6 0 .5-.4.9-1 .9-.5 0-1.2 1.1-1.6 2.5-.3 1.4-1 2.5-1.5 2.5s-.9.7-.9 1.5-.3 1.5-.8 1.5c-.4 0-1.8 2.1-3.2 4.7-1.3 2.7-2.7 5-3 5.3-.3.3-1.9 2.7-3.5 5.5-1.6 2.7-3.5 5.6-4.2 6.3-.7.7-1.3 1.9-1.3 2.7 0 .7-.3 1.5-.7 1.7-1 .4-5.2 7.6-6 10-.3 1-1.5 1.8-2.7 1.9-1.1 0-17.7.2-36.8.4-19.1.2-35.1.6-35.7.9-.5.4-1.2.2-1.6-.3-.3-.6-1.3-.7-2.1-.4-.9.3-4.3.6-7.7.7l-6.2.1-6.7-10.8c-3.8-6-6.8-11.1-6.8-11.4 0-.2-1.3-2.3-2.9-4.6-1.5-2.3-3.7-5.8-4.8-7.7-1-1.9-4-6.8-6.6-10.8-2.6-4-4.7-7.6-4.7-8.1s-.3-1.1-.7-1.3c-.5-.2-3-3.7-5.7-7.8s-5.3-7.7-5.8-7.8c-.4-.2-.8-.8-.8-1.3 0-1-.4-1.5-4.4-6.1-4.3-4.8-11.2-4.2-16.3 1.4-4.4 4.7-4 7.3 2.5 19.9 6.6 12.8 15.7 28.5 18 31.1.8 1 1.2 1.8.9 1.8-.3 0 1.3 2.9 3.6 6.4 4.5 7 11.6 17.9 13.2 20.5.6.9 3.3 4.9 6 9 2.8 4.1 5.5 8.1 6 8.9 3.6 5.4 10.7 13.6 15.1 17.4 2.2 1.8 4.1 3.6 4.4 4 1 1.3.5 75.3-.5 76.8-.6.8-3 2.6-5.5 3.9-13.3 7.2-27.5 19.7-34.6 30.7-2.2 3.2-4.1 6.1-4.4 6.4-.7.6-5.6 11.8-6.5 14.8-.9 3.1-1.5 12.3-1 14.2.4 1.3 4.2 1.5 26.1 1.5 14 0 25.9.2 26.2.5.4.3.8 23.2.8 51 .1 44.9.4 58.9 1.6 64 1.2 4.8 6.8 9.6 12.3 10.6 4.7.8 10.2-1.5 15.9-6.7l5.5-5 .1-35.7c0-37.8 0-49.9-.1-51-.1-.4-.1-.9 0-1.2.1-.3.3-5.5.5-11.6.4-11.9 1.5-15.3 5-14.8 2.4.3 3.5 2.1 3.7 5.9.1 1.6.2 6.2.4 10.2.1 4 .5 7.9.8 8.7.4.9.3 1.6-.2 1.6-.4 0-.8 1.3-.7 3 .1 1.6.4 3 .7 3 .4 0 .3 1.6-.1 3.6-.5 2-.5 4.6-.1 5.7.4 1.1.4 3.9 0 6.1-.4 2.3-.5 4.5-.2 4.9.9 1.4.9 7.7 0 7.7-.4 0-.3.9.3 1.9.6 1.2.6 2.2.1 2.5-1 .7-.9 2.5.2 4.3.4.6.3 1.4-.3 1.8-.7.4-.7 1.2 0 2.4.6 1.1.6 3 0 5-.5 1.7-.5 3.3-.1 3.5.9.6.8 3.7-.2 5.3-.4.6-.4 1.4 0 1.6.5.3.8 5.5.8 11.6s.4 11.1.8 11.1c.5 0 .6.4.3.8-1.3 2.2 1.9 8.3 5.6 10.7 7.8 5.1 15.2 3.7 23.8-4.5l4.5-4.3-.1-56.6c0-31.1.4-56.8.8-57.1.4-.3 6.7-.6 14-.5 8.1 0 13.6-.3 14-1 .5-.6.8-.6.8 0 0 1.5 9.1.5 9.7-1.1 1-2.8-8.1-24.3-15.5-36.4-1.2-1.9-2.5-4.2-2.9-5-1.6-3.5-9-12.9-14.7-18.8l-6.1-6.3v-80l6-4.4c8.6-6.3 13.9-11.9 18.8-19.8 2.3-3.7 4.9-7.9 5.7-9.2.8-1.3 3.5-5.7 5.9-9.7 2.4-4 5.9-9.6 7.7-12.5 1.9-2.8 3.4-5.4 3.4-5.7 0-.3 1.7-3.2 3.7-6.3 2.1-3.2 3.8-6 3.8-6.3 0-.3 2.6-4.8 5.6-10 10.5-17.9 12.8-22 12.3-22-.3 0 .2-1 1-2.2 1.9-2.7 2-6.7.3-8.8-1.5-2-7.7-6.5-9.8-7.3-.9-.3-2.9.3-4.5 1.2z"/><path d="M1099 904.1c0 .5-.6.6-1.4.3-2.3-.9-11.8 3.7-16.2 7.8-4.1 3.9-8.1 10.6-9.1 15.5-1.2 5.9-.3 16.4 1.7 18.8.4.5.8 1.4.8 1.8 0 .5.9 2 2.1 3.3 1.2 1.3 2.1 2.7 2.1 3.2.1 1.3 8.3 6.8 13 8.6 5.1 2 13.5 2.2 18.9.5 2-.6 5.7-2.7 8.2-4.5 14.8-10.7 18-28.5 7.8-42.7-3.2-4.5-9.4-9.7-11.6-9.7-.7 0-1.3-.4-1.3-.9s-2.1-1.2-4.7-1.6c-7-1.1-10.3-1.3-10.3-.4zM75.5 905.8c-.3.3-1.3.7-2.2.8-2.9.5-13.8 6.3-17.7 9.6-8.2 7-16.5 19.4-28.9 43.3-2.2 4.4-4.5 8.3-5 8.6-.5.3-.9 1-.9 1.5-.1 1.5-.8 3.7-2.3 6.9-1.5 3.2-3.1 7.4-3.5 9-.1.5-.5 1.4-1 2-.6.8-5.2 13.7-5.5 15.5 0 .3-.7 2.2-1.4 4.2-.7 2.1-1 4.2-.7 4.7.4.5.2 1.2-.4 1.6-.5.3-1 2.1-1 3.9 0 1.8-.3 3.6-.7 3.9-.6.7-.9 2.1-1.7 10.2-.3 2.2-.8 6.7-1.3 10-1.5 11.4-.7 52.1 1.1 57.6.3.8.7 3.2 1 5.4 1.2 10.2 7.2 33.4 10.7 42.1.7 1.6 1.3 3.3 1.5 3.9.1.5 1 2.8 2 5s1.8 4.2 1.9 4.5c.2 1 9.2 18.6 11.4 22.5 3.7 6.4 14.3 22 15.3 22.3.4.2.8 1 .8 1.7 0 .8.6 1.8 1.3 2.2.7.4 2.8 2.8 4.7 5.3 1.9 2.5 4.4 5.4 5.5 6.6 1.1 1.2 4.3 4.5 7.1 7.5 6.7 7 13.8 13.5 22.2 20.2 7.2 5.9 16.8 12.7 17.7 12.7.3 0 1.1.5 1.8 1 4.2 3.6 28.8 16.6 32.8 17.4.8.2 2.8.8 4.4 1.5 1.7.6 4.1 1.6 5.5 2.1 1.4.6 3.4 1.2 4.5 1.5 1.1.2 5.2 1.3 9 2.3 6.6 1.9 13.6 3.3 18 3.7 1.1.1 3.8.6 6 1 5 1.1 50.4 1.1 56.5.1 2.5-.4 5.9-.9 7.5-1.1 1.7-.2 4.8-.7 7-1 2.2-.4 5.1-.8 6.5-1 1.4-.2 2.5-.4 2.5-.5 0-.2 1.6-.5 5.5-1.3 1.4-.3 4.9-1.2 7.8-2.1 3-.8 5.7-1.5 6-1.4.4.1 1.6-.2 2.7-.6 1.1-.4 3.4-1.3 5-1.9 1.7-.6 3.5-1.2 4-1.3 2.3-.4 16.1-5.7 17.3-6.6.6-.6 1.2-.7 1.2-.3 0 .4.7.2 1.5-.5s1.5-.9 1.5-.4.4.4.8-.1c.9-1.2 20.4-10.9 21.5-10.7.4.1.7-.1.7-.6 0-.4 1.7-1.6 3.8-2.7 2-1.1 4.2-2.3 4.7-2.8.6-.4 4.8-3.3 9.4-6.3 4.6-3.1 8.9-6 9.5-6.5 4.3-3.6 6.5-5.3 8.9-7.2 8.9-6.7 24.4-25.4 36.1-43.2 5.9-9 17.6-30.7 19.1-35.5.9-3 1.2-3.8 1.5-4.5.1-.3.3-.8.5-1.3.1-.4.5-1.9.9-3.3 4.5-15.9-7.2-32.6-26.9-38.1-11.6-3.3-20-.6-30 9.6-4.7 4.8-19.5 26.2-19.5 28.1 0 .8-8.6 12.8-11.5 16.1-.5.7-2.8 3.3-5 5.9-2.2 2.6-6.9 7.5-10.4 10.9-3.5 3.3-7.4 7.1-8.7 8.3-1.3 1.3-2.8 2.3-3.4 2.3-.5 0-1 .4-1 .8 0 .8-8.8 7.4-9.3 6.9-.1-.1-1.3.7-2.5 1.9-1.2 1.1-3.5 2.7-5 3.4-1.5.8-3.3 1.8-4 2.4-2.2 1.6-20.6 9.3-24.2 10.1-.3.1-2.5.7-5 1.4-4.7 1.4-5.1 1.5-11.5 3-18.9 4.5-46.5 4.8-67.7.7-26.2-5.1-52.5-19.7-74.6-41.4-3.6-3.6-15.3-17.2-17.2-20.1-1.3-2-2.8-4-5.8-7.6-.4-.6-1.1-1.7-1.5-2.5-.3-.8-2-3.8-3.7-6.5-4.3-7.1-10.9-20.9-10.7-22.5 0-.3-.6-1.6-1.3-3-.8-1.4-1.5-3.1-1.6-3.8-.1-.8-.6-2.1-1-3-.9-2.2-1.2-3-1.9-6.6-.3-1.6-.8-3.3-1-3.6-.2-.4-.7-4.9-1.1-10.1-.4-5.2-.8-9.6-1-9.8-.1-.1.1-1.4.6-2.7.5-1.3.6-2.4.2-2.4-1.2 0-.2-34.1 1.2-41.6.3-1.2.7-3.7 1-5.5C74 1018.1 83 995 85.2 995c.5 0 .8-.5.8-1 0-1.2 8-12.3 9.3-12.8.4-.2.7-1 .7-1.8s.4-1.4.8-1.4c.5 0 2.6-2.5 4.8-5.7 2.1-3.1 4.3-6.1 4.9-6.7 1.7-1.8 8.8-16.4 8.8-18.1 0-.8.3-1.5.7-1.5.8 0 .9-1.4 1-9.4.1-7.5-3.1-14.5-9.6-20.8-7-6.9-14.2-10.1-23.6-10.4-4.2-.1-7.9.1-8.3.4z"/></svg>