<svg version="1" xmlns="http://www.w3.org/2000/svg" width="266.667" height="266.667" viewBox="0 0 200.000000 200.000000"><path d="M93.4 1.3c-8.2 3.2-13.1 9.8-13.8 18.3-.4 6.2 1 10.6 5.1 15.3C98 50.6 124 38.7 121.3 18.2 119.6 5.3 105.4-3.3 93.4 1.3zM91.7 56.6c-.2.3-1.5.7-2.8.9-4.8.9-14.7 6.6-19.2 10.9-15 14.7-17.7 33.8-8.4 61.6 1.1 3.6 2.2 6.7 2.2 7 2 7.8 18 36.5 29.8 53.2 5.4 7.8 7.1 9.5 8.1 8.5 2.2-2.2 16.2-23 20.5-30.4 10.1-17.5 18.4-37.1 21.4-50.6 1.9-8.4 2-23.1.2-29-2.9-9.7-8.5-17.8-16.6-23.8-7.5-5.7-14.8-8.1-25.5-8.5-5.1-.1-9.4-.1-9.7.2zM109 82.2c10.7 4.6 15.5 18.4 10 29-3.7 7-8.4 10.3-16.8 11.4-4.4.6-6 .3-10.7-2.1-8.7-4.2-13.3-12.3-12.1-21.1 2-14.7 16.1-22.9 29.6-17.2z"/></svg>