<?xml version="1.0" encoding="UTF-8"?>
<svg enable-background="new 0 0 753.8 175.9" version="1.1" viewBox="0 0 753.8 175.9" xml:space="preserve" xmlns="http://www.w3.org/2000/svg">
  <style type="text/css">
    .st0{fill:#ED3D63;}
    .st1{fill:#1B1464;}
  </style>
  <path class="st0" d="m700.1 56c-18.3 0-33 14.9-33 33.2 0 31.7 33 73.1 33 73.1s33-41.4 33-73.1c0-18.3-14.8-33.2-33-33.2zm0 49.4c-8.6 0-15.6-7-15.6-15.7s7-15.7 15.6-15.7 15.6 7 15.6 15.7c0 8.6-7 15.7-15.6 15.7z" />
  <path class="st0" d="m715.7 30.4c0 8.7-7 15.7-15.6 15.7s-15.6-7-15.6-15.7 7-15.7 15.6-15.7c8.6-0.1 15.6 7 15.6 15.7z" />
  <path class="st1" d="m37.7 36.6h15.7v20.7c-2.5 0.8-4.9 1.4-7.2 1.8-2.2 0.3-4.5 0.5-6.9 0.5-6 0-10.5-1.8-13.7-5.3-3.1-3.5-4.7-8.6-4.7-15.2 0-6.4 1.8-11.5 5.5-15.1 3.6-3.6 8.7-5.4 15.2-5.4 4.1 0 8 0.8 11.7 2.5l-2.8 6.8c-2.9-1.5-5.9-2.2-9-2.2-3.6 0-6.5 1.2-8.7 3.7s-3.3 5.8-3.3 9.9c0 4.3 0.9 7.6 2.6 9.9 1.8 2.3 4.3 3.4 7.7 3.4 1.7 0 3.5-0.2 5.3-0.5v-8.3h-7.5v-7.2z" />
  <path class="st1" d="m71.1 43.7v15.3h-8.4v-39.9h11.5c5.4 0 9.3 1 11.9 3s3.9 5 3.9 9c0 2.3-0.6 4.4-1.9 6.3-1.3 1.8-3.1 3.3-5.4 4.3 5.9 9 9.8 14.8 11.6 17.4h-9.3l-9.4-15.3h-4.5zm0-6.9h2.7c2.6 0 4.6-0.4 5.9-1.3s1.9-2.3 1.9-4.2-0.6-3.2-1.9-4-3.3-1.2-6-1.2h-2.5v10.7z" />
  <path class="st1" d="M122,59H99.3V19.1H122V26h-14.4v8.8H121v6.9h-13.4V52H122V59z" />
  <path class="st1" d="m154.4 59-2.9-9.5h-14.4l-2.9 9.5h-9l13.9-40.1h10.2l14 40.1h-8.9zm-4.8-16.6c-2.6-8.6-4.1-13.5-4.5-14.6-0.3-1.1-0.6-2-0.7-2.7-0.6 2.3-2.3 8.1-5.1 17.3h10.3z" />
  <path class="st1" d="M183.7,59h-8.4V26.1h-10.7v-7h29.8v7h-10.7V59z" />
  <path class="st1" d="m214.9 19.1h12.3c5.6 0 9.7 0.8 12.2 2.4s3.8 4.2 3.8 7.7c0 2.4-0.6 4.3-1.7 5.9-1.1 1.5-2.6 2.4-4.4 2.8v0.3c2.5 0.6 4.3 1.6 5.4 3.2 1.1 1.5 1.7 3.6 1.7 6.2 0 3.6-1.3 6.5-3.9 8.5s-6.1 3.1-10.6 3.1h-14.8v-40.1zm8.3 15.8h4.9c2.3 0 3.9-0.4 4.9-1.1s1.5-1.9 1.5-3.5c0-1.5-0.6-2.6-1.7-3.3s-2.9-1-5.3-1h-4.4v8.9zm0 6.7v10.4h5.5c2.3 0 4-0.4 5.1-1.3s1.6-2.3 1.6-4.1c0-3.3-2.3-5-7-5h-5.2z" />
  <path class="st1" d="m260.4 43.7v15.3h-8.4v-39.9h11.5c5.4 0 9.3 1 11.9 3s3.9 5 3.9 9c0 2.3-0.6 4.4-1.9 6.3-1.3 1.8-3.1 3.3-5.4 4.3 5.9 9 9.8 14.8 11.6 17.4h-9.3l-9.4-15.3h-4.5zm0-6.9h2.7c2.6 0 4.6-0.4 5.9-1.3s1.9-2.3 1.9-4.2-0.6-3.2-1.9-4-3.3-1.2-6-1.2h-2.5v10.7z" />
  <path class="st1" d="M288.6,59V19.1h8.4V59H288.6z" />
  <path class="st1" d="M322.1,59h-8.4V26.1H303v-7h29.8v7h-10.7V59z" />
  <path class="st1" d="M338.9,59V19.1h8.4V59H338.9z" />
  <path class="st1" d="m380.6 47.9c0 3.6-1.3 6.4-3.8 8.5-2.6 2.1-6.1 3.1-10.7 3.1-4.2 0-7.9-0.8-11.2-2.4v-7.9c2.7 1.2 4.9 2 6.8 2.5s3.5 0.7 5.1 0.7c1.8 0 3.2-0.4 4.2-1.1s1.5-1.8 1.5-3.2c0-0.8-0.2-1.5-0.7-2.1-0.4-0.6-1.1-1.2-1.9-1.8s-2.5-1.5-5.1-2.7c-2.4-1.1-4.2-2.2-5.4-3.3s-2.2-2.3-2.9-3.7-1.1-3-1.1-4.9c0-3.5 1.2-6.3 3.6-8.3s5.6-3 9.8-3c2.1 0 4 0.2 5.9 0.7s3.8 1.2 5.8 2.1l-2.7 6.6c-2.1-0.9-3.9-1.5-5.2-1.8-1.4-0.3-2.7-0.5-4.1-0.5-1.6 0-2.8 0.4-3.6 1.1s-1.3 1.7-1.3 2.9c0 0.7 0.2 1.4 0.5 2s0.9 1.1 1.6 1.6 2.5 1.5 5.3 2.8c3.7 1.8 6.2 3.6 7.6 5.4 1.3 1.9 2 4.1 2 6.7z" />
  <path class="st1" d="M420.1,59h-8.4V41.7h-15.6V59h-8.4V19.1h8.4v15.6h15.6V19.1h8.4V59z" />
  <path class="st1" d="m471.7 31.5c0 4.3-1.3 7.6-4 9.9s-6.4 3.4-11.3 3.4h-3.6v14.2h-8.4v-39.9h12.6c4.8 0 8.4 1 10.9 3.1 2.6 2.1 3.8 5.2 3.8 9.3zm-18.9 6.3h2.8c2.6 0 4.5-0.5 5.8-1.5s1.9-2.5 1.9-4.5-0.5-3.4-1.6-4.4c-1.1-0.9-2.8-1.4-5-1.4h-3.8v11.8z" />
  <path class="st1" d="m511.3 19.1v25.8c0 2.9-0.7 5.5-2 7.8s-3.2 3.9-5.7 5.1-5.4 1.8-8.8 1.8c-5.1 0-9-1.3-11.8-3.9s-4.2-6.2-4.2-10.8v-25.8h8.4v24.4c0 3.1 0.6 5.3 1.8 6.8 1.2 1.4 3.3 2.2 6.1 2.2 2.7 0 4.7-0.7 6-2.2 1.2-1.4 1.8-3.7 1.8-6.8v-24.4h8.4z" />
  <path class="st1" d="m521 19.1h12.3c5.6 0 9.7 0.8 12.2 2.4s3.8 4.2 3.8 7.7c0 2.4-0.6 4.3-1.7 5.9-1.1 1.5-2.6 2.4-4.4 2.8v0.3c2.5 0.6 4.3 1.6 5.4 3.2 1.1 1.5 1.7 3.6 1.7 6.2 0 3.6-1.3 6.5-3.9 8.5s-6.1 3.1-10.6 3.1h-14.8v-40.1zm8.4 15.8h4.9c2.3 0 3.9-0.4 4.9-1.1s1.5-1.9 1.5-3.5c0-1.5-0.6-2.6-1.7-3.3s-2.9-1-5.3-1h-4.4v8.9zm0 6.7v10.4h5.5c2.3 0 4-0.4 5.1-1.3s1.6-2.3 1.6-4.1c0-3.3-2.3-5-7-5h-5.2z" />
  <path class="st1" d="M558.2,59V19.1h8.4V52h16v7H558.2z" />
  <path class="st1" d="M589.5,59V19.1h8.4V59H589.5z" />
  <path class="st1" d="m624.6 25.5c-3.2 0-5.6 1.2-7.3 3.6s-2.6 5.7-2.6 10c0 8.9 3.3 13.3 9.9 13.3 2.8 0 6.1-0.7 10.1-2.1v7.1c-3.2 1.4-6.9 2-10.9 2-5.7 0-10.1-1.8-13.2-5.3-3-3.5-4.6-8.6-4.6-15.2 0-4.2 0.7-7.8 2.2-10.9s3.6-5.5 6.4-7.2 6.1-2.5 9.8-2.5c3.8 0 7.7 0.9 11.6 2.8l-2.7 6.9c-1.5-0.7-3-1.3-4.5-1.9s-2.8-0.6-4.2-0.6z" />
  <path class="st1" d="M57.1,159.8H41.2V98.1H20.9V84.9h56.5v13.2H57.1V159.8z" />
  <path class="st1" d="m156.9 122.2c0 12.4-3.1 21.9-9.2 28.6s-15 10-26.4 10c-11.5 0-20.3-3.3-26.4-10s-9.2-16.2-9.2-28.7 3.1-22 9.2-28.5c6.2-6.6 15-9.9 26.5-9.9s20.3 3.3 26.4 9.9c6.1 6.7 9.1 16.2 9.1 28.6zm-54.6 0c0 8.4 1.6 14.7 4.8 18.9s7.9 6.3 14.2 6.3c12.7 0 19-8.4 19-25.2 0-16.9-6.3-25.3-18.9-25.3-6.3 0-11.1 2.1-14.3 6.4s-4.8 10.6-4.8 18.9z" />
  <path class="st1" d="M172.4,159.8V84.9h15.9v74.9H172.4z" />
  <path class="st1" d="M207.2,159.8V84.9H223v61.8h30.4v13.1H207.2z" />
  <path class="st1" d="m309.5 159.8h-43.1v-74.9h43.1v13h-27.2v16.4h25.4v13h-25.4v19.3h27.2v13.2z" />
  <path class="st1" d="M354,159.8h-15.9V98.1h-20.3V84.9h56.5v13.2H354V159.8z" />
  <path class="st1" d="m444.8 159.8-18-58.7h-0.5c0.6 11.9 1 19.9 1 23.9v34.8h-14.2v-74.9h21.6l17.7 57.3h0.3l18.8-57.3h21.6v74.9h-14.8v-35.4c0-1.7 0-3.6 0.1-5.8s0.3-8 0.7-17.4h-0.5l-19.3 58.6h-14.5z" />
  <path class="st1" d="m557.9 159.8-5.4-17.8h-27.3l-5.4 17.8h-17.1l26.3-75.2h19.4l26.5 75.2h-17zm-9.3-31.2c-5-16.2-7.8-25.3-8.5-27.4-0.6-2.1-1.1-3.8-1.4-5-1.1 4.4-4.4 15.2-9.7 32.4h19.6z" />
  <path class="st1" d="m636.1 108.3c0 8.1-2.5 14.2-7.6 18.5-5 4.3-12.2 6.4-21.5 6.4h-6.8v26.6h-15.9v-74.9h23.9c9.1 0 16 2 20.7 5.9 4.9 3.9 7.2 9.7 7.2 17.5zm-35.8 11.8h5.2c4.9 0 8.5-1 11-2.9 2.4-1.9 3.6-4.7 3.6-8.4s-1-6.5-3-8.2c-2-1.8-5.2-2.7-9.6-2.7h-7.2v22.2z" />
</svg>