<svg xmlns="http://www.w3.org/2000/svg" viewBox="0 0 753.81 175.92"><defs><style>.cls-1{fill:#ed3d63;}.cls-2{fill:#0a165f;}</style></defs><g id="Layer_2" data-name="Layer 2"><g id="Layer_1-2" data-name="Layer 1"><path class="cls-1" d="M714.45,49.26A39.46,39.46,0,0,0,675.1,88.84c0,37.8,39.35,87.08,39.35,87.08s39.36-49.28,39.36-87.08A39.46,39.46,0,0,0,714.45,49.26Zm0,58.78a18.72,18.72,0,1,1,18.61-18.7A18.64,18.64,0,0,1,714.45,108Z"/><path class="cls-1" d="M733.06,18.73A18.61,18.61,0,1,1,714.45,0,18.65,18.65,0,0,1,733.06,18.73Z"/><path class="cls-2" d="M0,31.32C0,15.17,10.73,5.8,23.74,5.8A21.09,21.09,0,0,1,39.1,12.12l-5.8,7.06a12.61,12.61,0,0,0-9.2-3.88c-7.49,0-12.82,5.89-12.82,15.66,0,10,4.54,15.82,13.7,15.82a8.77,8.77,0,0,0,5.16-1.45v-8.4H22.07v-9H39.92V50.39c-3.36,3.29-9.27,5.9-16.07,5.9C10.44,56.29,0,47.73,0,31.32Z"/><path class="cls-2" d="M50,6.69H67.51c10.33,0,18.8,3.59,18.8,15.17,0,11.19-8.47,16-18.8,16H61V55.39H50ZM66.62,29.13c5.79,0,8.9-2.48,8.9-7.27s-3.11-6.43-8.9-6.43H61v13.7ZM65.5,35l7.61-7L88.66,55.39H76.34Z"/><path class="cls-2" d="M95.78,6.69h30.51v9.24h-19.5v9.78h16.6v9.23h-16.6V46.16H127v9.23H95.78Z"/><path class="cls-2" d="M145.78,6.69H159l15.29,48.7H162.6l-6.37-24.66c-1.35-4.87-2.66-10.63-4-15.71H152c-1.17,5.14-2.47,10.84-3.83,15.71l-6.4,24.66H130.49Zm-5.21,28.55H164v8.55H140.57Z"/><path class="cls-2" d="M183.61,15.93h-13.4V6.69H208v9.24h-13.4V55.39h-11Z"/><path class="cls-2" d="M230.57,6.69h16.67c10.11,0,18,2.78,18,12.08,0,4.37-2.44,9-6.42,10.52v.29c5,1.3,8.82,5,8.82,11.47,0,9.9-8.38,14.34-19,14.34H230.57ZM246.73,26.2c5.34,0,7.7-2.26,7.7-5.8,0-3.75-2.49-5.21-7.62-5.21h-5.23v11Zm1,20.7c6,0,9.1-2.14,9.1-6.57,0-4.27-3-6-9.1-6h-6.15V46.9Z"/><path class="cls-2" d="M275.78,6.69h17.54c10.32,0,18.79,3.59,18.79,15.17,0,11.19-8.47,16-18.79,16h-6.53V55.39h-11Zm16.64,22.44c5.79,0,8.9-2.48,8.9-7.27s-3.11-6.43-8.9-6.43h-5.63v13.7ZM291.3,35l7.62-7,15.54,27.47H302.14Z"/><path class="cls-2" d="M321.58,6.69h11v48.7h-11Z"/><path class="cls-2" d="M353.6,15.93H340.19V6.69H378v9.24h-13.4V55.39h-11Z"/><path class="cls-2" d="M385.61,6.69h11v48.7h-11Z"/><path class="cls-2" d="M405,49.25l6.32-7.56c3.46,3,8,5.09,12,5.09,4.6,0,6.85-1.81,6.85-4.7,0-3.06-2.77-4-7-5.8l-6.32-2.69c-5.05-2.06-9.83-6.2-9.83-13.28,0-8.07,7.21-14.51,17.34-14.51a22.52,22.52,0,0,1,15.67,6.38l-5.56,6.94c-3.21-2.46-6.26-3.82-10.11-3.82S418,16.88,418,19.67c0,3,3.19,4.07,7.44,5.76l6.2,2.52c5.95,2.4,9.66,6.36,9.66,13.24,0,8.09-6.74,15.1-18.34,15.1A26.81,26.81,0,0,1,405,49.25Z"/><path class="cls-2" d="M449.65,6.69h11V25.46h16.81V6.69h11v48.7h-11V35.06H460.66V55.39h-11Z"/><path class="cls-2" d="M24.22,102.72H2.4v-15H64v15H42.15V167H24.22Z"/><path class="cls-2" d="M69.2,127c0-25.91,14.63-40.77,36-40.77s36,15,36,40.77-14.63,41.45-36,41.45S69.2,152.9,69.2,127Zm53.66,0c0-15.9-6.83-25.29-17.65-25.29S87.57,111.09,87.57,127s6.83,26,17.64,26S122.86,142.89,122.86,127Z"/><path class="cls-2" d="M156.17,87.68H174.1V167H156.17Z"/><path class="cls-2" d="M192.79,87.68h17.93v64.26H242v15H192.79Z"/><path class="cls-2" d="M255.81,87.68h49.68v15H273.74v15.92h27v15h-27v18.27h33v15h-50.9Z"/><path class="cls-2" d="M338,102.72H316.17v-15h61.58v15H355.92V167H338Z"/><path class="cls-2" d="M414.46,87.68H434l12.86,35.23c1.59,4.68,3,9.77,4.57,14.64h.48c1.59-4.87,2.94-10,4.53-14.64l12.46-35.23h19.56V167H472.16v-29.1c0-7.73,1.44-19.27,2.29-26.94H474l-6.51,18.76-11.21,30.38h-9.95L435.06,129.7l-6.33-18.76h-.48c.84,7.67,2.29,19.21,2.29,26.94V167H414.46Z"/><path class="cls-2" d="M521.93,87.68h21.44L568.28,167h-19l-10.38-40.16c-2.2-7.93-4.32-17.31-6.44-25.58H532c-1.92,8.37-4,17.65-6.24,25.58L515.35,167H497Zm-8.49,46.48h38.15v13.93H513.44Z"/><path class="cls-2" d="M575.91,87.68h27.24c17.45,0,31.52,6.24,31.52,25.51,0,18.64-14.23,26.88-31,26.88h-9.8V167H575.91Zm26.67,38.16c9.86,0,14.52-4.4,14.52-12.65s-5.3-11.28-15-11.28h-8.25v23.93Z"/></g></g></svg>