<svg xmlns="http://www.w3.org/2000/svg" width="832.558" height="461.479" viewBox="0 0 832.558 461.479"><g fill="#1A1A1A"><path d="M40.665 266.768c-8.446.511-15.359 6.559-19.589 13.508-7.586 11.963-14.045 24.813-17.743 38.501-5.349 21.892-4.19 45.339 2.972 66.671 10.461 29.734 33.353 55.232 62.402 67.727 18.881 8.029 40.235 8.84 60.342 5.658 23.07-3.879 45.348-14.016 62.896-29.482 9.753-9.729 17.8-21.258 23.707-33.717 1.645-4.172 3.72-8.525 3.602-13.075-1.17-6.341-6.197-11.511-12.274-13.554-4.178-1.588-9.285-2.063-13.01.857-7.118 4.896-10.725 13.025-15.166 20.082-7.867 11.141-18.046 21.047-30.14 27.551-16.702 8.289-36.4 10.434-54.624 6.518-22.524-5.246-41.03-22.094-51.636-42.264-4.132-7.939-7.417-16.535-7.428-25.613-.28-14.025-1.03-29.035 5.816-41.746 5.131-9.422 13.96-16.688 17.197-27.131 1.951-5.223-.086-11.166-3.92-14.928-3.38-3.734-8.37-5.899-13.404-5.563zM365.35 459.264c-2.387-1.217-5.517-3.818-6.957-5.781-2.563-3.492-2.627-5.063-2.968-71.746l-.348-68.177-23.756-.343-23.756-.344 25.023-87.266c13.763-47.996 25.036-87.693 25.052-88.214.017-.522-1.883-.949-4.219-.949h-4.249l-9.833 34.464c-21.796 76.393-21.604 75.905-30.48 77.57-8.872 1.664-19.484-5.633-19.484-13.397 0-5.438 31.22-113.256 35.436-122.381 6.661-14.416 20.4-25.268 35.655-28.161 8.753-1.66 62.021-1.538 71.224.164 15.264 2.822 28.211 12.75 35.161 26.963 1.967 4.022 10.971 33.012 20.01 64.421 15.884 55.205 16.376 57.273 14.762 62.053-1.965 5.814-6.28 9.378-12.6 10.404-5.759.935-13.23-2.435-15.483-6.982-.9-1.819-8.133-26.211-16.069-54.205l-14.43-50.898-4.547-.013-4.545-.013 25.097 87.479c13.804 48.114 25.098 87.952 25.098 88.531s-10.529 1.052-23.397 1.052H437.35l-.028 66.082c-.026 62.225-.168 66.391-2.434 71.383-2.617 5.764-9.829 10.508-15.97 10.508-4.339 0-11.86-4.301-15.084-8.623-2.445-3.279-2.54-5.652-2.877-71.371l-.349-67.979h-8.724l-.349 67.571c-.342 66.304-.397 67.638-2.994 71.142-6.438 8.686-14.92 11.264-23.19 7.045l-.002.011z"/><path d="M533.468 458.95c-2.383-2.383-2.529-4.217-2.529-31.619v-29.088H504.38l.013-3.479c.032-9.027 9.57-22.225 20.83-28.824l5.717-3.35v-38.334l-4.472-3.795c-5.336-4.527-32.206-48.006-32.206-52.112 0-3.876 5.31-7.329 8.577-5.58 1.333.714 7.725 10.003 14.204 20.642l11.78 19.345 22.844-.247 22.844-.247 11.051-18.091c6.077-9.951 12.462-19.174 14.187-20.498 2.961-2.271 3.315-2.288 6.37-.287 1.778 1.166 3.233 3.207 3.233 4.537 0 1.893-14.953 27.533-27.739 47.565-.918 1.438-3.589 3.931-5.936 5.538l-4.267 2.924v40.144l4.968 4.968c4.428 4.428 12.31 18.651 14.593 26.335.828 2.785.631 2.846-9.357 2.846h-10.203v57.028l-3.104 3.104c-3.76 3.76-8.654 3.994-12.072.576-2.383-2.383-2.529-4.217-2.529-31.619 0-28.244-.073-29.088-2.529-29.088-2.455 0-2.529.844-2.529 28.514v28.514l-3.104 3.104c-3.764 3.757-8.658 3.992-12.076.574zM662.816 458.831c-3.046-1.508-6.58-4.633-8.22-7.27l-2.878-4.627-.632-149.869-.633-149.87H641.6l-.633 56.569-.632 56.569-3.279 3.277c-8.613 8.61-23.182 4.795-26.437-6.922-1.766-6.357-1.672-118.873.107-128.497 2.898-15.68 12.622-28.131 27.457-35.159l8.475-4.015H751.63l8.475 4.015c15.168 7.186 24.901 19.922 27.51 35.999.75 4.622 1.31 30.957 1.315 61.877l.011 53.832 7.545-.546c10.082-.729 15.14.369 21.56 4.68 13.202 8.868 19.344 30.597 10.052 35.57-7.104 3.802-16.393-1.252-16.393-8.92 0-2.715-1.204-5.152-3.853-7.801-3.316-3.316-4.494-3.75-8.46-3.105-2.536.411-5.782 1.92-7.215 3.352-2.57 2.57-2.613 3.83-3.237 94.131-.606 87.746-.73 91.637-3.042 94.188-3.219 3.557-11.168 3.627-14.664.133-2.483-2.484-2.529-4.217-2.529-95.402 0-89.103-.095-92.902-2.33-93.611-1.28-.406-3.699-2.197-5.375-3.98l-3.045-3.24-.633-56.496-.632-56.496h-8.854l-.632 149.871-.633 149.869-2.894 4.652c-3.356 5.398-11.612 9.893-18.175 9.893-6.99 0-15.008-4.941-18.388-11.332l-2.912-5.508V269.244h-10.119v175.398l-2.912 5.508c-3.395 6.418-11.404 11.332-18.47 11.33-2.495-.003-6.944-1.194-9.885-2.649zM90.623 118.992c-8.019.288-16.777-.075-23.522 4.999-7.707 4.717-12.122 13.308-13.115 22.108-1.796 12.124.908 24.303 2.251 36.333 5.435 38.496 11.35 76.94 18.518 115.153 1.024 3.873 1.154 8.105 3.041 11.673 4.25 5.567 11.137 8.688 18.055 8.792 20.36.955 40.758.234 61.133.232 19.582-.153 39.164-.318 58.746-.465 4.766 15.271 11.743 29.725 17.948 44.445 6.172 14.021 11.887 28.242 17.662 42.396 3.544 7.375 7.316 15.225 13.856 20.365 5.451 3.434 12.393 1.846 18.257.375 10.344-2.916 19.87-8.346 30.083-11.861 7.562-3.156 16.226-4.463 22.287-10.334 4.076-4.596 3.69-11.255 2.877-16.965-.575-4.037-3.299-7.877-7.493-8.716-9.468-2.22-19.35.255-28.52 2.757-6.565 1.88-12.973 4.645-19.746 5.611-1.806-.992-2.079-3.633-3.21-5.271-9.237-20.254-18.195-40.699-26.226-61.459-3.86-9.842-7.31-19.986-12.898-28.966-4.207-6.02-12.224-6.419-18.87-7.097-22.136-1.279-44.324-.286-66.479-.121-14.494.223-28.989.459-43.483.672-2.286-3.243-5.78-6.049-6.582-10.082 1.618-1.527 4.431-.828 6.521-1.26 26.426-1.463 53.01.264 79.363-2.188 7.113-.939 14.227-5.526 15.962-12.787 1.941-6.708.446-14.77-5.348-19.194-6.355-5.308-14.86-6.314-22.86-6.49-26.408-.794-52.835-.542-79.25-.823-2.296-12.66-4.523-25.337-6.078-38.113 9.67-3.872 20.025-7.87 26.452-16.455 7.754-9.962 8.027-23.918 4.18-35.518-3.457-10.285-13.272-16.595-22.909-20.328-3.379-1.278-7.025-1.491-10.603-1.418z"/><path d="M542.191 294.172c-8.093-5.445-9.13-16.742-2.178-23.695 7.047-7.047 18.602-5.688 23.774 2.797 3.22 5.279 3.247 10.637.084 15.824-4.836 7.934-14.18 10.121-21.68 5.074zM690.926 77.106c-7.518-2.079-10.825-3.916-16.538-9.182-9.142-8.426-11.268-13.516-11.268-26.967 0-9.238.514-12.347 2.73-16.499 3.364-6.307 12.897-15.257 19.144-17.976 6.331-2.755 22.068-2.652 28.466.187 6.505 2.887 15.667 11.526 18.865 17.79 3.653 7.154 4.414 20.045 1.67 28.307-2.687 8.088-11.442 18.003-19.062 21.584-6.394 3.006-18.204 4.362-24.007 2.756zM384.511 72.614c-15.282-4.772-25.54-19.043-25.563-35.565C358.92 16.928 373.18 1.571 393.22.138c11.535-.826 19.502 1.995 28.27 10.007 16.05 14.669 16.385 37.483.776 52.995-10.53 10.465-23.865 13.812-37.754 9.474z"/></g></svg>