<svg xmlns="http://www.w3.org/2000/svg" width="200" height="200" viewBox="0 0 200 200"><g fill="#1a1a1a"><path d="M54.152 89.359c-3.644.22-6.627 2.83-8.453 5.828-3.273 5.162-6.06 10.708-7.656 16.614-2.308 9.446-1.808 19.564 1.282 28.768 4.514 12.83 14.392 23.834 26.927 29.224 8.147 3.465 17.362 3.815 26.038 2.442 9.955-1.673 19.568-6.047 27.14-12.721 4.208-4.199 7.68-9.174 10.23-14.55.709-1.8 1.604-3.678 1.554-5.641-.506-2.737-2.675-4.967-5.297-5.849-1.803-.685-4.006-.89-5.614.37-3.071 2.113-4.627 5.62-6.544 8.665-3.395 4.808-7.787 9.083-13.006 11.889-7.206 3.576-15.706 4.502-23.57 2.812-9.72-2.264-17.705-9.534-22.28-18.237-1.784-3.425-3.201-7.135-3.206-11.052-.121-6.052-.445-12.529 2.51-18.013 2.214-4.066 6.023-7.201 7.42-11.708.842-2.253-.036-4.818-1.691-6.44-1.458-1.612-3.612-2.546-5.784-2.401z"/><path d="M75.71 25.593c-3.461.124-7.24-.032-10.15 2.157-3.327 2.036-5.232 5.743-5.66 9.54-.775 5.231.392 10.487.971 15.677 2.345 16.611 4.898 33.2 7.99 49.69.442 1.67.499 3.497 1.313 5.036 1.833 2.403 4.805 3.75 7.79 3.794 8.786.412 17.588.101 26.38.1 8.45-.066 16.899-.137 25.349-.2 2.056 6.589 5.067 12.826 7.744 19.178 2.663 6.05 5.13 12.186 7.621 18.294 1.53 3.183 3.158 6.57 5.98 8.787 2.352 1.482 5.347.797 7.878.163 4.463-1.259 8.574-3.602 12.98-5.119 3.263-1.361 7.002-1.925 9.618-4.459 1.758-1.983 1.592-4.856 1.241-7.32-.248-1.742-1.423-3.399-3.233-3.761-4.086-.958-8.35.11-12.307 1.19-2.833.81-5.598 2.004-8.52 2.42-.78-.427-.898-1.567-1.386-2.274-3.986-8.74-7.851-17.562-11.316-26.52-1.667-4.246-3.155-8.623-5.566-12.498-1.815-2.598-5.275-2.77-8.143-3.063-9.551-.552-19.126-.123-28.685-.052-6.255.096-12.51.198-18.764.29-.987-1.4-2.494-2.61-2.84-4.35.698-.66 1.912-.358 2.814-.544 11.403-.632 22.874.114 34.246-.944 3.069-.405 6.138-2.385 6.887-5.517.838-2.895.193-6.374-2.307-8.283-2.743-2.29-6.413-2.725-9.865-2.8-11.395-.343-22.798-.234-34.196-.356-.99-5.462-1.952-10.933-2.623-16.446 4.173-1.67 8.64-3.395 11.414-7.1 3.346-4.298 3.464-10.32 1.804-15.326-1.492-4.438-5.728-7.16-9.886-8.771-1.456-.553-3.03-.644-4.574-.613z"/></g></svg>