<svg xmlns="http://www.w3.org/2000/svg" width="200" height="200" viewBox="0 0 200 200"><g fill="#1a1a1a"><path d="M77.817 70.442l.059-5.331h3.683l.26 62.205.26 62.206 1.192 1.92c.68 1.094 2.147 2.383 3.412 3.009 1.22.604 3.074 1.102 4.111 1.102 2.933 0 6.257-2.044 7.666-4.708l1.206-2.283V115.76h4.202V188.562l1.206 2.283c1.403 2.653 4.725 4.708 7.627 4.708 2.724 0 6.156-1.858 7.549-4.098l1.193-1.933.272-62.206.26-62.205h3.67l.143 13.294h13.23c-.052-10.647-.261-19.16-.532-20.83-1.083-6.672-5.131-11.96-11.427-14.942l-3.515-1.673H79.977l-3.515 1.673c-6.157 2.917-10.198 8.084-11.4 14.592-.223 1.202-.381 6.27-.474 12.841"/><path d="M64.588 69.236c-.216 15.268-.078 38.648.434 40.493 1.351 4.863 7.398 6.44 10.973 2.866l1.362-1.362.26-23.476.2-18.145M98.351 36.02c-3.12-.863-4.493-1.625-6.864-3.81-3.794-3.498-4.677-5.61-4.677-11.193 0-3.835.214-5.125 1.133-6.848 1.397-2.618 5.354-6.333 7.946-7.461 2.628-1.144 9.16-1.1 11.815.077 2.7 1.199 6.503 4.784 7.83 7.384 1.516 2.97 1.832 8.32.693 11.748-1.115 3.358-4.749 7.473-7.911 8.959-2.654 1.248-7.556 1.81-9.965 1.144zM138.931 69.236c.216 15.268.078 38.648-.434 40.493-1.351 4.863-7.398 6.44-10.973 2.866l-1.362-1.362-.26-23.476-.2-18.145"/></g></svg>