<svg xmlns="http://www.w3.org/2000/svg" width="200" height="200" viewBox="0 0 200 200"><g fill="#fff"><path d="M88.734 194.241c-.971-.495-2.247-1.555-2.834-2.355-1.043-1.422-1.07-2.062-1.208-29.228l-.142-27.774-9.678-.14-9.677-.14 10.194-35.55c5.606-19.553 10.199-35.725 10.205-35.937.007-.213-.767-.387-1.718-.387h-1.731l-4.006 14.04c-8.88 31.122-8.801 30.923-12.418 31.601-3.614.678-7.937-2.295-7.937-5.457 0-2.215 12.718-46.139 14.436-49.856 2.713-5.873 8.31-10.294 14.525-11.472 3.566-.677 25.266-.627 29.015.067 6.219 1.15 11.493 5.194 14.325 10.984.8 1.638 4.469 13.448 8.15 26.244 6.472 22.49 6.673 23.332 6.015 25.279-.8 2.369-2.559 3.82-5.133 4.238-2.346.381-5.39-.992-6.308-2.844-.367-.741-3.313-10.678-6.546-22.082l-5.879-20.735-1.852-.009-1.851-.009 10.224 35.637c5.623 19.6 10.224 35.83 10.224 36.066 0 .236-4.29.429-9.532.429h-9.531l-.012 26.92c-.01 25.35-.068 27.047-.991 29.08-1.066 2.348-4.004 4.281-6.506 4.281-1.768 0-4.832-1.751-6.145-3.512-.996-1.336-1.035-2.303-1.172-29.076l-.142-27.693h-3.554l-.142 27.527c-.14 27.011-.162 27.555-1.22 28.982-2.623 3.539-6.078 4.588-9.448 2.87zM96.54 36.727c-6.225-1.944-10.404-7.758-10.414-14.488-.01-8.197 5.798-14.453 13.962-15.037 4.7-.337 7.945.812 11.516 4.076 6.54 5.977 6.676 15.27.317 21.59-4.29 4.263-9.722 5.626-15.38 3.86z"/></g></svg>