<svg viewBox="0 0 16 19" xmlns="http://www.w3.org/2000/svg">
  <g fill="#1B1464" fill-rule="evenodd">
    <path d="M12.81 10.13h-.034c.011-.002.023 0 .035 0zm-1.922 8.814h.003v.034c-.01-.011-.018-.022-.025-.035l.022.001zm.203 0h.002v.034c-.01-.011-.017-.022-.024-.035l.022.001zm3.905-8.802l.192-.001c-.052-.027-.108-.013-.162-.013h-.565c-.145.001-.29.006-.436.012l-.001.002.006.006.001.002h-.195l.183-.002.005-.006-.014-.009-.188.007-.001.002c-.008-.008-.018-.011-.028-.012h-.035c.012 0 .024-.002.035 0h.163c.018 0 .037-.004.054.003.083-.003.165-.005.249-.005h-3.161l-.179.003h-.203l-.281-.003h-.056.018H8.523h.092c-.201.001-.402.004-.602.002l-.044.001c-.012 0-.019.007-.025.013l.004.005h-.214l.006-.005c.008-.007.016-.014.028-.014l.201.001H8.013c.168 0 .336-.003.505-.003H7.454l-.24.003h-.117l-.11-.003c-.08-.001-.161-.002-.242 0H6.8 6.73h.016-1.782c-.128 0-.256.004-.383.006-.027-.056-.016-.116-.016-.173V3.662c0-1.002-.007-2.004.003-3.007.004-.39-.307-.646-.65-.651H2.545L1.028 0C.992 0 .955-.002.924.023.631.076.436.318.436.636.435 3.74.433 6.843.438 9.946c.001.412.154.776.458 1.067.243.263.548.41.9.462.09.012.116.04.12.132.025.583.228 1.104.57 1.574.002.014 0 .03.007.04.41.546.9 1.018 1.393 1.487.172.179.34.36.516.535.21.208.368.458.524.707.005.017.009.035.017.05.307.59.205 1.152-.103 1.704-.047.085-.108.126-.21.142-.249.04-.448.224-.435.488.008.166.01.335-.002.5-.008.13.028.166.163.166l2.215-.001H12.698c.05 0 .1-.007.15-.01.055.008.109.02.107-.07-.005-.216.005-.433-.007-.649-.011-.21-.187-.407-.396-.42-.273-.018-.445-.169-.581-.376-.264-.402-.375-.846-.349-1.323.016-.285.113-.527.387-.668.035-.019.063-.05.094-.077.415-.29.777-.634 1.086-1.033.339-.388.603-.821.813-1.287.215-.478.359-.973.378-1.5.002-.07-.012-.095-.087-.093-.384.005-.768.006-1.152.008h-8.18c-.04-.002-.08-.006-.121-.007-.317 0-.317 0-.263-.318l.878-.004h8.373c.374.001.748.01 1.123 0 .266-.006.474-.23.483-.495.01-.277-.171-.497-.438-.535z"/>
    <path d="M10.935 0L12.016 2.304 14.435 2.674 12.685 4.467 13.098 7 10.935 5.804 8.772 7 9.185 4.467 7.435 2.674 9.853 2.304z"/>
  </g>
</svg>