<?xml version="1.0" encoding="utf-8"?>
<!-- Generator: Adobe Illustrator 15.0.0, SVG Export Plug-In . SVG Version: 6.00 Build 0)  -->
<!DOCTYPE svg PUBLIC "-//W3C//DTD SVG 1.1//EN" "http://www.w3.org/Graphics/SVG/1.1/DTD/svg11.dtd">
<svg version="1.1"
	 id="svg6350" xmlns:dc="http://purl.org/dc/elements/1.1/" xmlns:cc="http://creativecommons.org/ns#" xmlns:rdf="http://www.w3.org/1999/02/22-rdf-syntax-ns#" xmlns:svg="http://www.w3.org/2000/svg" xmlns:sodipodi="http://sodipodi.sourceforge.net/DTD/sodipodi-0.dtd" xmlns:inkscape="http://www.inkscape.org/namespaces/inkscape" inkscape:export-filename="/home/heydon/gbptm-ui/public/images/logo.png" inkscape:version="0.48.3.1 r9886" sodipodi:docname="logo.svg" inkscape:export-xdpi="19.203377" inkscape:export-ydpi="19.203377"
	 xmlns="http://www.w3.org/2000/svg" xmlns:xlink="http://www.w3.org/1999/xlink" x="0px" y="0px" width="832.558px"
	 height="461.479px" viewBox="0 0 832.558 461.479" enable-background="new 0 0 832.558 461.479" xml:space="preserve">
<sodipodi:namedview  id="base" fit-margin-top="0" bordercolor="#666666" fit-margin-left="0" borderopacity="1.0" inkscape:cx="139.86682" inkscape:zoom="0.24748737" inkscape:cy="268.27957" showguides="true" pagecolor="#ffffff" showgrid="false" inkscape:window-maximized="1" inkscape:pageopacity="0.0" inkscape:pageshadow="2" inkscape:document-units="px" inkscape:current-layer="layer1" inkscape:window-width="1316" inkscape:window-height="744" inkscape:window-x="50" inkscape:window-y="24" inkscape:guide-bbox="true" fit-margin-right="0" fit-margin-bottom="0">
	</sodipodi:namedview>
<g id="layer1" transform="translate(215.91346,1258.948)" inkscape:label="Layer 1" inkscape:groupmode="layer">
	<path id="path6671" inkscape:connector-curvature="0" fill="#1A1A1A" d="M-175.248-992.18c-8.446,0.511-15.359,6.559-19.589,13.508
		c-7.586,11.963-14.045,24.813-17.743,38.501c-5.349,21.892-4.19,45.339,2.972,66.671c10.461,29.734,33.353,55.232,62.402,67.727
		c18.881,8.029,40.235,8.84,60.342,5.658c23.07-3.879,45.348-14.016,62.896-29.482c9.753-9.729,17.8-21.258,23.707-33.717
		c1.645-4.172,3.72-8.525,3.602-13.075c-1.171-6.341-6.197-11.511-12.274-13.554c-4.178-1.588-9.285-2.063-13.01,0.857
		c-7.118,4.896-10.725,13.025-15.166,20.082c-7.867,11.141-18.046,21.047-30.141,27.551c-16.701,8.289-36.399,10.434-54.623,6.518
		c-22.524-5.246-41.031-22.094-51.636-42.264c-4.132-7.939-7.417-16.535-7.428-25.613c-0.28-14.025-1.031-29.035,5.816-41.746
		c5.131-9.422,13.959-16.688,17.197-27.131c1.951-5.223-0.086-11.166-3.92-14.928C-165.224-990.351-170.214-992.516-175.248-992.18
		L-175.248-992.18z"/>
	<path id="path6669" inkscape:connector-curvature="0" fill="#1A1A1A" d="M149.436-799.684c-2.386-1.217-5.516-3.818-6.956-5.781
		c-2.563-3.492-2.627-5.063-2.968-71.746l-0.348-68.177l-23.756-0.343l-23.756-0.344l25.023-87.266
		c13.763-47.996,25.036-87.693,25.052-88.214c0.017-0.522-1.883-0.949-4.219-0.949h-4.249l-9.833,34.464
		c-21.796,76.393-21.604,75.905-30.481,77.57c-8.871,1.664-19.483-5.633-19.483-13.397c0-5.438,31.219-113.256,35.436-122.381
		c6.661-14.416,20.4-25.268,35.655-28.161c8.753-1.66,62.021-1.538,71.224,0.164c15.264,2.822,28.211,12.75,35.161,26.963
		c1.967,4.022,10.971,33.012,20.009,64.421c15.885,55.205,16.377,57.273,14.763,62.053c-1.965,5.814-6.281,9.378-12.6,10.404
		c-5.759,0.935-13.23-2.435-15.483-6.982c-0.901-1.819-8.133-26.211-16.069-54.205l-14.431-50.898l-4.546-0.013l-4.545-0.013
		l25.097,87.479c13.804,48.114,25.098,87.952,25.098,88.531s-10.529,1.052-23.397,1.052h-23.397l-0.028,66.082
		c-0.026,62.225-0.168,66.391-2.434,71.383c-2.617,5.764-9.829,10.508-15.971,10.508c-4.338,0-11.86-4.301-15.083-8.623
		c-2.445-3.279-2.541-5.652-2.877-71.371l-0.349-67.979h-4.362h-4.362l-0.349,67.571c-0.342,66.304-0.397,67.638-2.994,71.142
		c-6.438,8.686-14.92,11.264-23.191,7.045L149.436-799.684z"/>
	<path id="path6667" inkscape:connector-curvature="0" fill="#1A1A1A" d="M317.555-799.998c-2.383-2.383-2.529-4.217-2.529-31.619
		v-29.088h-13.28h-13.279l0.013-3.479c0.032-9.027,9.569-22.225,20.829-28.824l5.718-3.35v-19.168v-19.166l-4.472-3.795
		c-5.336-4.527-32.206-48.006-32.206-52.112c0-3.876,5.31-7.329,8.577-5.58c1.333,0.714,7.725,10.003,14.204,20.642l11.78,19.345
		l22.844-0.247l22.844-0.247l11.051-18.091c6.077-9.951,12.462-19.174,14.187-20.498c2.961-2.271,3.315-2.288,6.37-0.287
		c1.778,1.166,3.233,3.207,3.233,4.537c0,1.893-14.953,27.533-27.739,47.565c-0.918,1.438-3.589,3.931-5.936,5.538l-4.267,2.924
		v20.072v20.072l4.968,4.968c4.428,4.428,12.31,18.651,14.593,26.335c0.828,2.785,0.631,2.846-9.357,2.846h-10.203v28.514v28.514
		l-3.104,3.104c-3.76,3.76-8.654,3.994-12.072,0.576c-2.383-2.383-2.529-4.217-2.529-31.619c0-28.244-0.073-29.088-2.529-29.088
		c-2.455,0-2.529,0.844-2.529,28.514v28.514l-3.104,3.104C325.867-796.815,320.973-796.58,317.555-799.998L317.555-799.998z"/>
	<path id="path6665" inkscape:connector-curvature="0" fill="#1A1A1A" d="M446.903-800.117c-3.046-1.508-6.581-4.633-8.221-7.27
		l-2.877-4.627l-0.632-149.869l-0.633-149.87h-4.426h-4.427l-0.633,56.569l-0.632,56.569l-3.279,3.277
		c-8.613,8.61-23.182,4.795-26.437-6.922c-1.766-6.357-1.672-118.873,0.107-128.497c2.898-15.68,12.622-28.131,27.457-35.159
		l8.475-4.015h52.486h52.486l8.475,4.015c15.168,7.186,24.901,19.922,27.51,35.999c0.75,4.622,1.31,30.957,1.315,61.877
		l0.011,53.832l7.545-0.546c10.082-0.729,15.139,0.369,21.559,4.68c13.203,8.868,19.345,30.597,10.053,35.57
		c-7.104,3.802-16.393-1.252-16.393-8.92c0-2.715-1.204-5.152-3.853-7.801c-3.316-3.316-4.494-3.75-8.461-3.105
		c-2.535,0.411-5.781,1.92-7.214,3.352c-2.57,2.57-2.613,3.83-3.237,94.131c-0.606,87.746-0.731,91.637-3.042,94.188
		c-3.219,3.557-11.168,3.627-14.664,0.133c-2.483-2.484-2.529-4.217-2.529-95.402c0-89.103-0.095-92.902-2.33-93.611
		c-1.28-0.406-3.699-2.197-5.375-3.98l-3.045-3.24l-0.633-56.496l-0.632-56.496h-4.427h-4.427l-0.632,149.871l-0.633,149.869
		l-2.894,4.652c-3.356,5.398-11.612,9.893-18.175,9.893c-6.991,0-15.008-4.941-18.388-11.332l-2.912-5.508v-87.699v-87.699h-5.059
		h-5.06v87.699v87.699l-2.912,5.508c-3.395,6.418-11.404,11.332-18.471,11.33C454.293-797.471,449.844-798.662,446.903-800.117
		L446.903-800.117z"/>
	<path id="path6663" inkscape:connector-curvature="0" fill="#1A1A1A" d="M-125.29-1139.956c-8.019,0.288-16.777-0.075-23.522,4.999
		c-7.707,4.717-12.122,13.308-13.115,22.108c-1.796,12.124,0.908,24.303,2.251,36.333c5.435,38.496,11.35,76.94,18.518,115.153
		c1.024,3.873,1.154,8.105,3.041,11.673c4.249,5.567,11.137,8.688,18.055,8.792c20.36,0.955,40.758,0.234,61.133,0.232
		c19.582-0.153,39.164-0.318,58.746-0.465c4.766,15.271,11.743,29.725,17.948,44.445c6.172,14.021,11.887,28.242,17.662,42.396
		c3.544,7.375,7.316,15.225,13.856,20.365c5.451,3.434,12.393,1.846,18.257,0.375c10.344-2.916,19.87-8.346,30.083-11.861
		c7.562-3.156,16.226-4.463,22.287-10.334c4.076-4.596,3.689-11.255,2.877-16.965c-0.575-4.037-3.299-7.877-7.493-8.716
		c-9.468-2.22-19.35,0.255-28.521,2.757c-6.564,1.88-12.972,4.645-19.745,5.611c-1.806-0.992-2.079-3.633-3.21-5.271
		c-9.237-20.254-18.195-40.699-26.226-61.459c-3.861-9.842-7.311-19.986-12.898-28.966c-4.207-6.02-12.224-6.419-18.87-7.097
		c-22.136-1.279-44.324-0.286-66.479-0.121c-14.494,0.223-28.989,0.459-43.483,0.672c-2.286-3.243-5.781-6.049-6.582-10.082
		c1.618-1.527,4.431-0.828,6.521-1.26c26.426-1.463,53.01,0.264,79.363-2.188c7.113-0.939,14.227-5.526,15.962-12.787
		c1.941-6.708,0.446-14.77-5.348-19.194c-6.355-5.308-14.86-6.314-22.861-6.49c-26.407-0.794-52.834-0.542-79.249-0.823
		c-2.296-12.66-4.523-25.337-6.078-38.113c9.67-3.872,20.025-7.87,26.452-16.455c7.754-9.962,8.027-23.918,4.18-35.518
		c-3.457-10.285-13.272-16.595-22.909-20.328C-118.066-1139.816-121.712-1140.029-125.29-1139.956L-125.29-1139.956z"/>
	<path id="path6661" inkscape:connector-curvature="0" fill="#1A1A1A" d="M326.278-964.776c-8.093-5.445-9.131-16.742-2.178-23.695
		c7.047-7.047,18.602-5.688,23.774,2.797c3.219,5.279,3.247,10.637,0.084,15.824C343.122-961.916,333.777-959.729,326.278-964.776
		L326.278-964.776z"/>
	<path id="path6659" inkscape:connector-curvature="0" fill="#1A1A1A" d="M475.013-1181.842c-7.518-2.079-10.825-3.916-16.538-9.182
		c-9.142-8.426-11.268-13.516-11.268-26.967c0-9.238,0.514-12.347,2.729-16.499c3.365-6.307,12.898-15.257,19.145-17.976
		c6.331-2.755,22.068-2.652,28.466,0.187c6.505,2.887,15.667,11.526,18.865,17.79c3.653,7.154,4.414,20.045,1.67,28.307
		c-2.687,8.088-11.442,18.003-19.062,21.584C492.626-1181.592,480.816-1180.236,475.013-1181.842L475.013-1181.842z"/>
	<path id="path6629-3" inkscape:connector-curvature="0" fill="#1A1A1A" d="M168.598-1186.334
		c-15.282-4.772-25.54-19.043-25.563-35.565c-0.028-20.121,14.231-35.478,34.271-36.911c11.535-0.826,19.502,1.995,28.269,10.007
		c16.051,14.669,16.386,37.483,0.777,52.995C195.822-1185.343,182.487-1181.996,168.598-1186.334L168.598-1186.334z"/>
</g>
</svg>
