<svg xmlns="http://www.w3.org/2000/svg" width="200" height="200" viewBox="0 0 200 200"><g transform="translate(0 -852.362)" fill="#1a1a1a"><path d="M143.087 977.715c-3.53-.977-5.083-1.84-7.766-4.312-4.292-3.956-5.29-6.346-5.29-12.662 0-4.338.241-5.797 1.282-7.747 1.58-2.961 6.056-7.164 8.989-8.44 2.973-1.294 10.362-1.246 13.366.087 3.055 1.355 7.356 5.412 8.858 8.353 1.716 3.36 2.073 9.412.784 13.291-1.261 3.798-5.372 8.454-8.95 10.135-3.002 1.412-8.548 2.048-11.273 1.295z"/><rect width="67.879" height="43.636" x="56.064" y="933.732" ry="17.778"/><rect width="19.394" height="60.606" x="104.548" y="909.49" ry="9.697"/><rect ry="9.697" y="740.071" x="522.956" height="60.606" width="19.394" transform="rotate(30)"/><rect transform="rotate(60)" width="19.394" height="60.606" x="824.234" y="374.487" ry="9.697"/><rect width="160" height="13.737" x="22.286" y="987.066" ry="6.869"/></g></svg>