<?xml version="1.0" encoding="UTF-8" standalone="no"?>
<!-- Created with Inkscape (http://www.inkscape.org/) -->

<svg
   xmlns:dc="http://purl.org/dc/elements/1.1/"
   xmlns:cc="http://creativecommons.org/ns#"
   xmlns:rdf="http://www.w3.org/1999/02/22-rdf-syntax-ns#"
   xmlns:svg="http://www.w3.org/2000/svg"
   xmlns="http://www.w3.org/2000/svg"
   xmlns:sodipodi="http://sodipodi.sourceforge.net/DTD/sodipodi-0.dtd"
   xmlns:inkscape="http://www.inkscape.org/namespaces/inkscape"
   width="200"
   height="200"
   id="svg3087"
   version="1.1"
   inkscape:version="0.48.3.1 r9886"
   sodipodi:docname="pref-access.svg"
   inkscape:export-filename="/home/heydon/gbptm-ui/public/images/pref-access.png"
   inkscape:export-xdpi="90"
   inkscape:export-ydpi="90">
  <defs
     id="defs3089" />
  <sodipodi:namedview
     id="base"
     pagecolor="#ffffff"
     bordercolor="#666666"
     borderopacity="1.0"
     inkscape:pageopacity="0.0"
     inkscape:pageshadow="2"
     inkscape:zoom="1.4"
     inkscape:cx="127.32134"
     inkscape:cy="114.16145"
     inkscape:document-units="px"
     inkscape:current-layer="layer1"
     showgrid="false"
     inkscape:window-width="1316"
     inkscape:window-height="744"
     inkscape:window-x="50"
     inkscape:window-y="24"
     inkscape:window-maximized="1" />
  <metadata
     id="metadata3092">
    <rdf:RDF>
      <cc:Work
         rdf:about="">
        <dc:format>image/svg+xml</dc:format>
        <dc:type
           rdf:resource="http://purl.org/dc/dcmitype/StillImage" />
        <dc:title></dc:title>
      </cc:Work>
    </rdf:RDF>
  </metadata>
  <g
     inkscape:label="Layer 1"
     inkscape:groupmode="layer"
     id="layer1"
     transform="translate(0,-852.36218)">
    <path
       style="font-size:144px;font-style:normal;font-variant:normal;font-weight:bold;font-stretch:normal;line-height:125%;letter-spacing:0px;word-spacing:0px;fill:#1a1a1a;fill-opacity:1;stroke:none;font-family:Century Schoolbook L;-inkscape-font-specification:Century Schoolbook L Bold"
       d="m 116.42106,882.41538 c -26.840595,0 -46.685248,17.60655 -46.685248,41.64291 0,3.49971 0.287866,6.74362 0.91284,10.21511 0.463981,-0.50408 0.92433,-1.05582 1.390995,-1.47793 4.202473,-3.30599 6.898582,-8.34713 11.866922,-10.69326 4.342297,-2.10404 9.294627,0.58591 12.040798,3.99911 3.428693,2.79745 6.698813,7.12859 5.520513,11.82345 -2.90549,5.89273 -8.246751,10.02239 -12.823235,14.56197 -2.041604,0.97615 -0.592702,2.10627 0.565091,3.0428 3.558666,4.35973 8.677943,7.37953 11.475704,12.34508 2.52931,4.26789 -0.0228,9.56651 -3.520953,12.43202 -2.608045,3.02098 -6.236565,6.1031 -10.432459,5.91173 0.01846,0.39563 0.04347,0.80484 0.04347,1.17365 0,1.0015 -0.01705,2.60464 -0.217343,4.60766 -6.009096,-2.00302 -9.63368,-2.60811 -14.040352,-2.60811 -12.218483,0 -21.43001,8.41379 -21.43001,19.43043 0,10.8165 8.030225,18.2133 19.647798,18.2133 9.614542,0 16.611606,-3.8095 22.821006,-12.8231 10.415743,8.8133 20.029293,12.8231 30.645353,12.8231 38.79605,-1.422 33.30949,-62.62133 25.25524,-42.85996 -4.00607,11.41729 -11.02782,16.21376 -23.64691,16.21376 -7.61153,0 -14.61798,-1.1948 -22.42978,-3.99909 5.20786,-10.41576 7.43312,-18.25055 7.43312,-26.86359 0,-2.20331 -0.225,-4.39101 -0.8259,-8.99799 l 29.25435,0 0,-11.99733 -31.03657,0 c -5.40819,-18.82847 -7.82434,-30.07574 -7.82434,-37.68726 0,-10.61606 7.61432,-17.996 18.43067,-17.996 8.21242,0 15.21401,3.9734 15.21401,8.78066 0,1.80273 -0.77548,2.62169 -4.78155,4.82502 -5.60848,3.00454 -8.04168,6.82353 -8.04168,12.43201 0,8.81334 6.80892,15.38787 15.82256,15.38787 11.01666,0 19.03924,-8.40439 19.03924,-19.82167 0,-18.62817 -16.6085,-32.03635 -39.64335,-32.03635 z M 87.297119,926.536 c -0.991515,0 -1.976562,0.41169 -2.73852,1.17365 L 69.257658,942.96712 53.956716,927.70965 c -0.761959,-0.76197 -1.744126,-1.13018 -2.73852,-1.13018 -0.994408,0 -1.976562,0.36821 -2.738521,1.13018 l -5.346635,5.30316 c -1.523918,1.52392 -1.523918,3.9966 0,5.52052 l 15.30094,15.25747 -15.30094,15.25747 c -1.523918,1.52393 -1.523918,3.9966 0,5.52051 l 5.346635,5.30316 c 1.523918,1.52395 3.953123,1.52395 5.477041,0 l 15.300942,-15.25746 15.300941,15.25746 c 1.523917,1.52395 3.953123,1.52395 5.47704,0 l 5.346636,-5.30316 c 1.523919,-1.52391 1.523919,-3.99658 0,-5.52051 L 80.081334,953.7908 95.382275,938.53333 c 1.523919,-1.52392 1.523919,-3.9966 0,-5.52052 l -5.346636,-5.30316 c -0.761958,-0.76196 -1.747005,-1.17365 -2.73852,-1.17365 z m -16.778873,73.2446 c 4.807264,0 8.050034,1.3916 13.257918,5.9986 -3.204852,7.6115 -7.213017,10.8236 -13.823009,10.8236 -5.007581,0 -8.824123,-3.4082 -8.824123,-8.2155 0,-5.0076 3.780725,-8.6067 9.389214,-8.6067 z"
       id="path4206-4"
       inkscape:connector-curvature="0" />
  </g>
</svg>
