<?xml version="1.0" encoding="UTF-8" standalone="no"?>
<!-- Created with Inkscape (http://www.inkscape.org/) -->

<svg
   xmlns:dc="http://purl.org/dc/elements/1.1/"
   xmlns:cc="http://creativecommons.org/ns#"
   xmlns:rdf="http://www.w3.org/1999/02/22-rdf-syntax-ns#"
   xmlns:svg="http://www.w3.org/2000/svg"
   xmlns="http://www.w3.org/2000/svg"
   xmlns:sodipodi="http://sodipodi.sourceforge.net/DTD/sodipodi-0.dtd"
   xmlns:inkscape="http://www.inkscape.org/namespaces/inkscape"
   width="200"
   height="200"
   id="svg3087"
   version="1.1"
   inkscape:version="0.48.3.1 r9886"
   sodipodi:docname="pref-baby.svg"
   inkscape:export-filename="/home/heydon/gbptm-ui/public/images/pref-access.png"
   inkscape:export-xdpi="90"
   inkscape:export-ydpi="90"
   viewBox="0 0 200 200">
  <defs
     id="defs3089" />
  <sodipodi:namedview
     id="base"
     pagecolor="#ffffff"
     bordercolor="#666666"
     borderopacity="1.0"
     inkscape:pageopacity="0.0"
     inkscape:pageshadow="2"
     inkscape:zoom="0.7"
     inkscape:cx="249.28571"
     inkscape:cy="149.28571"
     inkscape:document-units="px"
     inkscape:current-layer="layer1"
     showgrid="false"
     inkscape:window-width="1316"
     inkscape:window-height="744"
     inkscape:window-x="50"
     inkscape:window-y="24"
     inkscape:window-maximized="1" />
  <metadata
     id="metadata3092">
    <rdf:RDF>
      <cc:Work
         rdf:about="">
        <dc:format>image/svg+xml</dc:format>
        <dc:type
           rdf:resource="http://purl.org/dc/dcmitype/StillImage" />
        <dc:title></dc:title>
      </cc:Work>
    </rdf:RDF>
  </metadata>
  <g
     inkscape:label="Layer 1"
     inkscape:groupmode="layer"
     id="layer1"
     transform="translate(0,-852.36218)">
    <path
       style="fill:#ffffff"
       d="m 54.152113,941.72117 c -3.64461,0.22024 -6.6275,2.82993 -8.4529,5.82832 -3.27328,5.16204 -6.06019,10.70733 -7.65596,16.61354 -2.30813,9.44613 -1.80844,19.56399 1.28219,28.76859 4.51369,12.83048 14.39184,23.83328 26.92701,29.22398 8.1468,3.4649 17.36169,3.8148 26.03742,2.4415 9.954997,-1.673 19.567897,-6.0474 27.139787,-12.7212 4.20855,-4.1983 7.68066,-9.1734 10.22953,-14.54923 0.70982,-1.80029 1.6051,-3.67887 1.55435,-5.64183 -0.50563,-2.73629 -2.67437,-4.96666 -5.29675,-5.84834 -1.80259,-0.68558 -4.00628,-0.89018 -5.61372,0.36984 -3.07145,2.11238 -4.6275,5.62064 -6.54422,8.66529 -3.39482,4.80733 -7.78695,9.08217 -13.00569,11.88827 -7.206627,3.5765 -15.706647,4.502 -23.570217,2.8122 -9.71935,-2.2635 -17.70488,-9.5335 -22.28077,-18.2366 -1.78284,-3.42571 -3.20051,-7.13512 -3.205,-11.05241 -0.12122,-6.05153 -0.44522,-12.5287 2.50974,-18.01329 2.21406,-4.06597 6.0232,-7.2008 7.42061,-11.70746 0.84172,-2.25323 -0.037,-4.81817 -1.69165,-6.44076 -1.4583,-1.61132 -3.61148,-2.54547 -5.78376,-2.40041 z"
       id="path6671"
       inkscape:connector-curvature="0" />
    <path
       style="fill:#ffffff"
       d="m 75.709243,877.95509 c -3.46022,0.12418 -7.23985,-0.0324 -10.15001,2.15726 -3.32581,2.03541 -5.23086,5.74236 -5.6596,9.53955 -0.77469,5.23125 0.39198,10.48701 0.97164,15.67774 2.34478,16.61103 4.89735,33.19951 7.99038,49.68874 0.44179,1.67123 0.49811,3.49777 1.31216,5.03695 1.83342,2.40253 4.80563,3.74911 7.79054,3.79377 8.78569,0.41236 17.58724,0.10137 26.379057,0.10011 8.44972,-0.066 16.89944,-0.13734 25.3492,-0.20021 2.05631,6.58915 5.06699,12.82574 7.74462,19.17817 2.66304,6.05016 5.12938,12.18648 7.62117,18.29403 1.52932,3.1827 3.15738,6.5692 5.97922,8.7874 2.35213,1.4815 5.34764,0.797 7.878,0.1624 4.46343,-1.2587 8.57391,-3.6015 12.98075,-5.1184 3.26284,-1.3618 7.00159,-1.9256 9.61715,-4.4594 1.75872,-1.98261 1.59201,-4.85637 1.24159,-7.32017 -0.2484,-1.74181 -1.42354,-3.39874 -3.23329,-3.76099 -4.08578,-0.95789 -8.34943,0.11007 -12.30729,1.18983 -2.83281,0.81093 -5.59737,2.00408 -8.52042,2.42112 -0.77909,-0.42822 -0.89678,-1.56744 -1.38487,-2.27471 -3.98601,-8.73953 -7.85144,-17.56163 -11.31654,-26.51978 -1.66625,-4.24667 -3.15439,-8.62381 -5.5655,-12.49876 -1.81569,-2.59751 -5.2748,-2.76964 -8.14277,-3.06259 -9.55178,-0.55199 -19.12617,-0.12311 -28.68587,-0.0518 -6.254547,0.0958 -12.509037,0.19819 -18.763627,0.28976 -0.98648,-1.39954 -2.49442,-2.61034 -2.84012,-4.35076 0.69833,-0.65848 1.91208,-0.35686 2.81426,-0.54318 11.40294,-0.63164 22.873977,0.11384 34.245617,-0.94388 3.06906,-0.40548 6.13876,-2.38479 6.88727,-5.51757 0.8378,-2.89466 0.19281,-6.37361 -2.30729,-8.28245 -2.74252,-2.29033 -6.41232,-2.72477 -9.86497,-2.80064 -11.39453,-0.34265 -22.797707,-0.23361 -34.195997,-0.35508 -0.9906,-5.46284 -1.95175,-10.93309 -2.62287,-16.44589 4.17286,-1.67062 8.64098,-3.39572 11.41425,-7.10019 3.34573,-4.29876 3.46379,-10.32086 1.80353,-15.32609 -1.49176,-4.43798 -5.72721,-7.16085 -9.8854,-8.77148 -1.45666,-0.55242 -3.03002,-0.64419 -4.57397,-0.61288 z"
       id="path6663"
       inkscape:connector-curvature="0" />
  </g>
</svg>
