<?xml version="1.0" encoding="UTF-8" standalone="no"?>
<!-- Created with Inkscape (http://www.inkscape.org/) -->

<svg
   xmlns:dc="http://purl.org/dc/elements/1.1/"
   xmlns:cc="http://creativecommons.org/ns#"
   xmlns:rdf="http://www.w3.org/1999/02/22-rdf-syntax-ns#"
   xmlns:svg="http://www.w3.org/2000/svg"
   xmlns="http://www.w3.org/2000/svg"
   xmlns:sodipodi="http://sodipodi.sourceforge.net/DTD/sodipodi-0.dtd"
   xmlns:inkscape="http://www.inkscape.org/namespaces/inkscape"
   width="200"
   height="200"
   id="svg3087"
   version="1.1"
   inkscape:version="0.48.3.1 r9886"
   sodipodi:docname="pref-female.svg"
   inkscape:export-filename="/home/heydon/gbptm-ui/public/images/pref-female.png"
   inkscape:export-xdpi="90"
   inkscape:export-ydpi="90">
  <defs
     id="defs3089" />
  <sodipodi:namedview
     id="base"
     pagecolor="#ffffff"
     bordercolor="#666666"
     borderopacity="1.0"
     inkscape:pageopacity="0.0"
     inkscape:pageshadow="2"
     inkscape:zoom="0.7"
     inkscape:cx="375"
     inkscape:cy="149.28571"
     inkscape:document-units="px"
     inkscape:current-layer="layer1"
     showgrid="false"
     inkscape:window-width="1316"
     inkscape:window-height="744"
     inkscape:window-x="50"
     inkscape:window-y="24"
     inkscape:window-maximized="1" />
  <metadata
     id="metadata3092">
    <rdf:RDF>
      <cc:Work
         rdf:about="">
        <dc:format>image/svg+xml</dc:format>
        <dc:type
           rdf:resource="http://purl.org/dc/dcmitype/StillImage" />
        <dc:title></dc:title>
      </cc:Work>
    </rdf:RDF>
  </metadata>
  <g
     inkscape:label="Layer 1"
     inkscape:groupmode="layer"
     id="layer1"
     transform="translate(0,-852.36218)">
    <path
       inkscape:connector-curvature="0"
       style="fill:#ffffff"
       d="m 77.81682,922.80391 0.0589,-5.33087 1.84179,0 1.84177,0 0.25941,62.20558 0.25941,62.20558 1.19326,1.9196 c 0.68053,1.0944 2.14687,2.3832 3.4112,3.0091 1.21994,0.6039 3.07433,1.1023 4.11158,1.1025 2.93289,0 6.25664,-2.0442 7.66545,-4.7083 l 1.20624,-2.2828 0,-36.3946 0,-36.40764 2.10118,0 2.10119,0 0,36.40764 0,36.3946 1.20624,2.2828 c 1.40274,2.6526 4.72503,4.7083 7.62653,4.7083 2.7236,0 6.15555,-1.8583 7.54872,-4.0987 l 1.19326,-1.9325 0.27238,-62.20558 0.25941,-62.20558 1.84178,0 1.82881,0 0.14268,13.29456 13.2297,0 c -0.0515,-10.64716 -0.26068,-19.15954 -0.53178,-20.83031 -1.08272,-6.67255 -5.13116,-11.95928 -11.42683,-14.94178 l -3.51495,-1.67318 -21.77714,0 -21.79011,0 0,0 -3.51494,1.67318 c -6.1573,2.917 -10.19783,8.08361 -11.4009,14.59158 -0.22218,1.20192 -0.38054,6.27019 -0.47339,12.8412"
       id="path3197" />
    <path
       style="fill:#ffffff"
       d="m 64.58768,921.59823 c -0.21574,15.26777 -0.0778,38.64826 0.43448,40.49266 1.3511,4.86359 7.39798,6.4402 10.97287,2.86642 l 1.36189,-1.36186 0.2594,-23.47625 0.2005,-18.14539"
       id="path3187"
       inkscape:connector-curvature="0" />
    <path
       inkscape:connector-curvature="0"
       id="path3189"
       d="m 98.35111,888.38233 c -3.11991,-0.86289 -4.4931,-1.6253 -6.86421,-3.81091 -3.79387,-3.49703 -4.67656,-5.60968 -4.67656,-11.19272 0,-3.83423 0.21347,-5.12433 1.13306,-6.84761 1.39687,-2.6176 5.35324,-6.33246 7.94603,-7.46094 2.62761,-1.14363 9.1594,-1.10083 11.81449,0.0774 2.70003,1.19817 6.50259,4.78386 7.83009,7.38349 1.51628,2.96935 1.83187,8.31971 0.69299,11.74856 -1.11506,3.35713 -4.74898,7.47213 -7.91124,8.9586 -2.65402,1.24751 -7.55576,1.81031 -9.96465,1.14408 z"
       style="fill:#ffffff" />
    <path
       inkscape:connector-curvature="0"
       id="path3199"
       d="m 138.93115,921.59823 c 0.21574,15.26777 0.0779,38.64826 -0.43448,40.49266 -1.35109,4.86359 -7.39798,6.4402 -10.97287,2.86642 l -1.36189,-1.36186 -0.2594,-23.47625 -0.2005,-18.14539"
       style="fill:#ffffff" />
  </g>
</svg>
