<svg xmlns="http://www.w3.org/2000/svg" width="200" height="200" viewBox="0 0 200 200"><path d="M42.217 180V25.733h115.7V180" fill="none" stroke="#1a1a1a" stroke-width="11.203" stroke-linecap="round" stroke-linejoin="round"/><path style="text-indent:0;text-align:start;line-height:normal;text-transform:none;block-progression:tb;marker:none;-inkscape-font-specification:Sans" d="M70.25 40.688c-1.848.002-3.529 1.682-3.531 3.53V146.75c-.006 1.451.977 2.855 2.344 3.344l70.718 24.75c1.06.365 2.306.213 3.219-.438.913-.65 1.47-1.785 1.469-2.906V44.219c-.002-1.849-1.683-3.53-3.531-3.532H70.25zm10.906 45.218c3.195 0 5.813 3.459 5.813 7.719s-2.618 7.688-5.813 7.688-5.781-3.428-5.781-7.688 2.586-7.719 5.781-7.719z" font-weight="400" color="#000" fill="#1a1a1a" overflow="visible" font-family="Sans"/></svg>