<svg xmlns="http://www.w3.org/2000/svg" width="200" height="200" viewBox="0 0 200 200"><path style="line-height:125%;-inkscape-font-specification:Century Schoolbook L Bold" d="M116.421 30.053c-26.84 0-46.685 17.607-46.685 41.643 0 3.5.288 6.744.913 10.215.464-.504.924-1.056 1.39-1.478 4.203-3.306 6.9-8.347 11.868-10.693 4.342-2.104 9.294.586 12.04 4 3.43 2.797 6.7 7.128 5.52 11.823-2.905 5.892-8.246 10.022-12.822 14.562-2.042.976-.593 2.106.565 3.042 3.558 4.36 8.678 7.38 11.475 12.345 2.53 4.268-.022 9.567-3.52 12.432-2.609 3.021-6.237 6.104-10.433 5.912.018.396.043.805.043 1.174 0 1.001-.017 2.604-.217 4.608-6.009-2.004-9.634-2.609-14.04-2.609-12.219 0-21.43 8.414-21.43 19.43 0 10.817 8.03 18.214 19.648 18.214 9.614 0 16.611-3.81 22.82-12.823 10.416 8.813 20.03 12.823 30.646 12.823 38.796-1.422 33.31-62.621 25.255-42.86-4.006 11.417-11.028 16.214-23.647 16.214-7.611 0-14.618-1.195-22.43-4 5.208-10.415 7.434-18.25 7.434-26.863 0-2.203-.225-4.39-.826-8.998h29.254V96.17h-31.036c-5.409-18.829-7.825-30.076-7.825-37.687 0-10.616 7.614-17.996 18.43-17.996 8.213 0 15.215 3.973 15.215 8.78 0 1.803-.776 2.622-4.782 4.825-5.608 3.005-8.041 6.824-8.041 12.432 0 8.814 6.809 15.388 15.822 15.388 11.017 0 19.04-8.404 19.04-19.821 0-18.629-16.61-32.037-39.644-32.037zm-29.124 44.12c-.991 0-1.976.413-2.738 1.174L69.258 90.605 53.957 75.347a3.837 3.837 0 0 0-2.739-1.13c-.994 0-1.976.369-2.738 1.13l-5.347 5.304a3.905 3.905 0 0 0 0 5.52l15.301 15.258-15.301 15.257a3.905 3.905 0 0 0 0 5.52l5.347 5.304a3.852 3.852 0 0 0 5.477 0l15.3-15.258L84.56 127.51a3.852 3.852 0 0 0 5.477 0l5.346-5.303a3.905 3.905 0 0 0 0-5.52l-15.3-15.258 15.3-15.258a3.905 3.905 0 0 0 0-5.52l-5.346-5.304c-.762-.761-1.747-1.173-2.739-1.173zm-16.779 73.245c4.808 0 8.05 1.392 13.258 5.999-3.205 7.612-7.213 10.824-13.823 10.824-5.007 0-8.824-3.409-8.824-8.216 0-5.007 3.78-8.607 9.39-8.607z" font-size="144" font-weight="700" letter-spacing="0" word-spacing="0" fill="#fff" font-family="Century Schoolbook L"/></svg>