<?xml version="1.0" encoding="UTF-8" standalone="no"?>
<!-- Created with Inkscape (http://www.inkscape.org/) -->

<svg
   xmlns:dc="http://purl.org/dc/elements/1.1/"
   xmlns:cc="http://creativecommons.org/ns#"
   xmlns:rdf="http://www.w3.org/1999/02/22-rdf-syntax-ns#"
   xmlns:svg="http://www.w3.org/2000/svg"
   xmlns="http://www.w3.org/2000/svg"
   xmlns:sodipodi="http://sodipodi.sourceforge.net/DTD/sodipodi-0.dtd"
   xmlns:inkscape="http://www.inkscape.org/namespaces/inkscape"
   width="2343.0879"
   height="506.16098"
   id="svg6350"
   version="1.1"
   inkscape:version="0.48.3.1 r9886"
   sodipodi:docname="logo.svg"
   inkscape:export-filename="/home/heydon/gbptm-ui/public/images/logo.png"
   inkscape:export-xdpi="19.203377"
   inkscape:export-ydpi="19.203377">
  <defs
     id="defs6352" />
  <sodipodi:namedview
     id="base"
     pagecolor="#ffffff"
     bordercolor="#666666"
     borderopacity="1.0"
     inkscape:pageopacity="0.0"
     inkscape:pageshadow="2"
     inkscape:zoom="0.24748737"
     inkscape:cx="139.86682"
     inkscape:cy="268.27957"
     inkscape:document-units="px"
     inkscape:current-layer="layer1"
     showgrid="false"
     inkscape:window-width="1316"
     inkscape:window-height="744"
     inkscape:window-x="50"
     inkscape:window-y="24"
     inkscape:window-maximized="1"
     showguides="true"
     inkscape:guide-bbox="true"
     fit-margin-top="0"
     fit-margin-left="0"
     fit-margin-right="0"
     fit-margin-bottom="0" />
  <metadata
     id="metadata6355">
    <rdf:RDF>
      <cc:Work
         rdf:about="">
        <dc:format>image/svg+xml</dc:format>
        <dc:type
           rdf:resource="http://purl.org/dc/dcmitype/StillImage" />
        <dc:title></dc:title>
      </cc:Work>
    </rdf:RDF>
  </metadata>
  <g
     inkscape:label="Layer 1"
     inkscape:groupmode="layer"
     id="layer1"
     transform="translate(215.91346,1258.948)">
    <path
       style="fill:#1a1a1a"
       d="m -175.24797,-992.17948 c -8.44629,0.51046 -15.3591,6.55835 -19.58938,13.50704 -7.58576,11.96294 -14.04438,24.81402 -17.74252,38.50153 -5.34905,21.89115 -4.19102,45.3391 2.97142,66.67056 10.46039,29.73437 33.35278,55.233 62.40276,67.72586 18.88001,8.02977 40.23532,8.84074 60.341124,5.65829 23.07048,-3.87727 45.348199,-14.01489 62.895873,-29.48126 9.753218,-9.72946 17.799736,-21.25918 23.706685,-33.71753 1.645007,-4.17207 3.719818,-8.5257 3.602187,-13.07472 -1.171779,-6.34132 -6.197797,-11.51016 -12.275125,-13.55341 -4.177432,-1.58878 -9.28444,-2.06301 -13.009658,0.85706 -7.118015,4.89545 -10.72411,13.02568 -15.166065,20.08157 -7.867434,11.14094 -18.046081,21.04788 -30.14039,27.55073 -16.7012,8.2886 -36.399801,10.43342 -54.623461,6.51729 -22.5244,-5.2455 -41.03067,-22.09361 -51.63517,-42.26283 -4.1317,-7.93908 -7.41715,-16.53556 -7.42754,-25.61372 -0.28091,-14.02437 -1.0318,-29.03503 5.81629,-41.74545 5.13101,-9.42278 13.95862,-16.68764 17.19708,-27.13181 1.95066,-5.22181 -0.0856,-11.16598 -3.92036,-14.9263 -3.37958,-3.73417 -8.36954,-5.89901 -13.40375,-5.5629 z"
       id="path6671"
       inkscape:connector-curvature="0" />
    <path
       style="fill:#1a1a1a"
       d="m 149.4362,-799.68482 c -2.38515,-1.21628 -5.51534,-3.81768 -6.95598,-5.78105 -2.56198,-3.49165 -2.62696,-5.06242 -2.96732,-71.74587 l -0.34799,-68.17621 -23.75554,-0.34337 -23.75555,-0.34337 25.02296,-87.26591 c 13.76263,-47.9963 25.03607,-87.6928 25.05208,-88.2145 0.0161,-0.5217 -1.88266,-0.9486 -4.21927,-0.9486 l -4.24833,0 -9.83318,34.4638 c -21.79646,76.3932 -21.6046,75.9049 -30.48182,77.5703 -8.87104,1.6642 -19.483388,-5.633 -19.483388,-13.3969 0,-5.4374 31.218778,-113.256 35.435238,-122.3808 6.66145,-14.416 20.40126,-25.2676 35.65556,-28.1605 8.75326,-1.6601 62.0206,-1.5376 71.22367,0.1636 15.26412,2.8218 28.21112,12.7499 35.16105,26.9626 1.9668,4.0221 10.97077,33.0117 20.00882,64.4211 15.88514,55.2049 16.37714,57.273 14.76249,62.0525 -1.96422,5.8143 -6.28053,9.3784 -12.59964,10.4039 -5.7584,0.9345 -13.23009,-2.4349 -15.48287,-6.9818 -0.90127,-1.8192 -8.13255,-26.2114 -16.06953,-54.2049 l -14.43085,-50.8976 -4.54531,-0.013 -4.54529,-0.013 25.09707,87.4787 c 13.80338,48.11315 25.09705,87.95195 25.09705,88.53057 0,0.5786 -10.52882,1.05199 -23.39739,1.05199 l -23.39739,0 -0.0279,66.08182 c -0.0263,62.22365 -0.16829,66.39128 -2.4344,71.38278 -2.6163,5.7627 -9.82827,10.50808 -15.96994,10.50808 -4.33788,0 -11.8604,-4.30032 -15.08307,-8.62252 -2.44532,-3.27955 -2.54102,-5.65343 -2.87747,-71.37126 l -0.34803,-67.9789 -4.36258,0 -4.36259,0 -0.34828,67.57103 c -0.34177,66.30378 -0.3979,67.63794 -2.99403,71.1407 -6.43825,8.68676 -14.91972,11.26352 -23.19121,7.04578 z"
       id="path6669"
       inkscape:connector-curvature="0" />
    <path
       style="fill:#1a1a1a"
       d="m 317.55456,-799.9991 c -2.38281,-2.38274 -2.52945,-4.21569 -2.52945,-31.6181 l 0,-29.08864 -13.2796,0 -13.2796,0 0.0127,-3.47799 c 0.0321,-9.02709 9.56935,-22.22511 20.82863,-28.82355 l 5.71793,-3.35102 4e-5,-19.16688 6e-5,-19.1669 -4.47155,-3.79417 c -5.33535,-4.52708 -32.20554,-48.00639 -32.20554,-52.11255 0,-3.87524 5.30906,-7.32909 8.57725,-5.57997 1.33278,0.71329 7.72434,10.00207 14.20345,20.64168 l 11.78016,19.34472 22.84372,-0.24714 22.84372,-0.247 11.05074,-18.09149 c 6.07791,-9.95022 12.46187,-19.1741 14.18658,-20.4975 2.96113,-2.27209 3.31603,-2.28815 6.37004,-0.28697 1.77881,1.16545 3.2342,3.20734 3.2342,4.53757 0,1.89164 -14.95359,27.53242 -27.73971,47.56488 -0.91784,1.43811 -3.58878,3.93026 -5.93541,5.5381 l -4.26661,2.92352 0,20.07256 0,20.07257 4.96733,4.96732 c 4.42791,4.42792 12.30952,18.65113 14.59302,26.33459 0.82791,2.7858 0.63103,2.84562 -9.35732,2.84562 l -10.20303,0 0,28.51383 0,28.5137 -3.10432,3.10439 c -3.76002,3.76004 -8.65415,3.99311 -12.07236,0.57482 -2.38281,-2.38274 -2.52944,-4.21569 -2.52944,-31.6181 0,-28.24545 -0.0733,-29.08864 -2.52944,-29.08864 -2.45466,0 -2.52945,0.84319 -2.52945,28.51383 l 0,28.5137 -3.10433,3.10439 c -3.76003,3.76004 -8.65416,3.99311 -12.07237,0.57482 z"
       id="path6667"
       inkscape:connector-curvature="0" />
    <path
       style="fill:#1a1a1a"
       d="m 446.90349,-800.11677 c -3.04621,-1.50781 -6.58107,-4.63433 -8.22071,-7.27115 l -2.87655,-4.62586 -0.63237,-149.86977 -0.63236,-149.86975 -4.42653,0 -4.42653,0 -0.63236,56.5687 -0.63237,56.56867 -3.27882,3.27779 c -8.61317,8.6105 -23.1818,4.79557 -26.43705,-6.92256 -1.76573,-6.3563 -1.67115,-118.8722 0.10799,-128.4965 2.89862,-15.68 12.62184,-28.1306 27.45694,-35.1587 l 8.47454,-4.0147 52.48605,0 52.48604,0 8.47452,4.0147 c 15.16849,7.1859 24.90148,19.9222 27.51013,35.9987 0.74992,4.6217 1.30962,30.9571 1.31514,61.8775 l 0.0108,53.8315 7.54502,-0.5457 c 10.0827,-0.7293 15.13856,0.3683 21.55872,4.6801 13.20375,8.8677 19.34487,30.59681 10.05281,35.5697 -7.10433,3.80189 -16.3921,-1.25219 -16.3921,-8.91946 0,-2.71486 -1.20412,-5.15311 -3.85282,-7.80182 -3.31644,-3.31649 -4.49447,-3.74877 -8.46128,-3.10504 -2.53465,0.41131 -5.78073,1.91987 -7.2135,3.35228 -2.57021,2.56954 -2.61353,3.82883 -3.23742,94.13036 -0.60623,87.74678 -0.73184,91.63593 -3.04163,94.18739 -3.21931,3.55628 -11.16869,3.62786 -14.66449,0.13204 -2.48355,-2.48354 -2.52944,-4.2157 -2.52944,-95.4014 0,-89.10271 -0.0945,-92.90193 -2.32943,-93.61131 -1.28115,-0.40661 -3.69994,-2.1977 -5.37507,-3.98022 l -3.04566,-3.24084 -0.63236,-56.49558 -0.63237,-56.4956 -4.42653,0 -4.42653,0 -0.63237,149.86975 -0.63237,149.86977 -2.89331,4.65305 c -3.35662,5.39797 -11.61292,9.89128 -18.17503,9.89128 -6.99075,0 -15.00785,-4.94078 -18.38755,-11.33192 l -2.91236,-5.50724 0,-87.6995 0,-87.69936 -5.05889,0 -5.05889,0 0,87.69936 0,87.6995 -2.91232,5.50724 c -3.3943,6.41871 -11.40435,11.33255 -18.47072,11.33089 -2.49909,-3.7e-4 -6.94866,-1.19136 -9.88795,-2.64629 z"
       id="path6665"
       inkscape:connector-curvature="0" />
    <path
       style="fill:#1a1a1a"
       d="m -125.28979,-1139.9559 c -8.01898,0.2878 -16.7782,-0.075 -23.52242,4.9994 -7.7075,4.717 -12.1224,13.3078 -13.11599,22.1077 -1.79535,12.1233 0.90839,24.3034 2.25172,36.3328 5.434,38.4957 11.34951,76.93912 18.51754,115.15259 1.02385,3.87295 1.15436,8.10599 3.04092,11.67294 4.24889,5.56787 11.13692,8.68851 18.0544,8.79206 20.360652,0.95555 40.75803,0.23479 61.132854,0.23211 19.582049,-0.15317 39.164097,-0.31833 58.746218,-0.46401 4.765446,15.27016 11.742623,29.72338 17.94798,44.44493 6.171553,14.02118 11.887232,28.24191 17.661896,42.39602 3.544169,7.37592 7.317168,15.22388 13.85672,20.36469 5.45098,3.43337 12.393015,1.84706 18.257076,0.37627 10.343883,-2.91693 19.869836,-8.34641 30.082576,-11.86173 7.56159,-3.15601 16.22603,-4.46266 22.28756,-10.33452 4.07576,-4.59468 3.68942,-11.25459 2.87736,-16.96443 -0.57568,-4.03661 -3.29904,-7.87644 -7.49312,-8.71601 -9.46868,-2.2199 -19.3496,0.25502 -28.52184,2.75748 -6.56498,1.87928 -12.97178,4.64436 -19.745887,5.61084 -1.805526,-0.9924 -2.078269,-3.63249 -3.209393,-5.27153 -9.237488,-20.25372 -18.195535,-40.69875 -26.225844,-61.45902 -3.861485,-9.84162 -7.310228,-19.98553 -12.897926,-28.96565 -4.20781,-6.01971 -12.224215,-6.41861 -18.870688,-7.0975 -22.136028,-1.27914 -44.324431,-0.28527 -66.478836,-0.11996 -14.494764,0.22188 -28.989447,0.45924 -43.484286,0.67146 -2.28616,-3.24336 -5.78076,-6.04941 -6.58194,-10.08275 1.61838,-1.52603 4.43121,-0.82702 6.52201,-1.25885 26.426066,-1.46375 53.009923,0.26391 79.363435,-2.18736 7.112493,-0.93967 14.226437,-5.52673 15.961106,-12.78687 1.941559,-6.7083 0.446829,-14.7707 -5.3471,-19.1944 -6.355746,-5.3078 -14.86041,-6.3146 -22.861855,-6.4904 -26.406572,-0.7941 -52.833166,-0.5414 -79.248446,-0.8229 -2.29568,-12.66 -4.52313,-25.3372 -6.07845,-38.113 9.67051,-3.8716 20.02528,-7.8695 26.45227,-16.4545 7.75364,-9.9623 8.027262,-23.9184 4.179649,-35.5179 -3.457126,-10.2849 -13.272679,-16.5951 -22.909189,-20.3277 -3.3758,-1.2802 -7.02203,-1.4929 -10.60008,-1.4203 z"
       id="path6663"
       inkscape:connector-curvature="0" />
    <path
       style="fill:#1a1a1a"
       d="m 326.27847,-964.77558 c -8.09246,-5.44578 -9.1307,-16.74241 -2.17779,-23.69537 7.04733,-7.04729 18.6015,-5.68771 23.77483,2.79745 3.21851,5.27908 3.24681,10.63595 0.0837,15.82383 -4.83739,7.93363 -14.18155,10.12045 -21.68064,5.07409 z"
       id="path6661"
       inkscape:connector-curvature="0" />
    <path
       style="fill:#1a1a1a"
       d="m 475.01267,-1181.8413 c -7.51695,-2.079 -10.82548,-3.9159 -16.5383,-9.1818 -9.14076,-8.4256 -11.26749,-13.5157 -11.26749,-26.9672 0,-9.238 0.51433,-12.3463 2.72996,-16.4983 3.36553,-6.3067 12.89783,-15.2571 19.14477,-17.976 6.33082,-2.7554 22.06821,-2.6523 28.46527,0.1866 6.50532,2.8868 15.667,11.526 18.8654,17.7894 3.65325,7.1542 4.41364,20.0451 1.66967,28.3064 -2.68657,8.0885 -11.44196,18.003 -19.06094,21.5844 -6.39449,3.0057 -18.20449,4.3617 -24.00834,2.7565 z"
       id="path6659"
       inkscape:connector-curvature="0" />
    <path
       style="fill:#1a1a1a"
       d="m 168.59766,-1186.3339 c -15.28211,-4.772 -25.53985,-19.0434 -25.56262,-35.5648 -0.0277,-20.1204 14.23126,-35.4774 34.2721,-36.9113 11.53435,-0.8254 19.50172,1.9952 28.26804,10.0072 16.05109,14.6697 16.38576,37.4835 0.77741,52.9953 -10.52974,10.4646 -23.86529,13.8109 -37.75493,9.4736 z"
       id="path6629-3"
       inkscape:connector-curvature="0" />
    <text
       xml:space="preserve"
       style="font-size:206.39825439000000529px;font-style:normal;font-variant:normal;font-weight:normal;font-stretch:normal;line-height:105.99999427999999568%;letter-spacing:0px;word-spacing:0px;fill:#1a1a1a;fill-opacity:1;stroke:none;font-family:Cabin;-inkscape-font-specification:Cabin"
       x="660.50201"
       y="-1021.5175"
       id="text6651"
       sodipodi:linespacing="105.99999%"><tspan
         sodipodi:role="line"
         id="tspan6653"
         x="660.50201"
         y="-1021.5175"
         style="line-height:105.99999427999999568%;fill:#1a1a1a">The Great British</tspan><tspan
         sodipodi:role="line"
         x="660.50201"
         y="-802.73535"
         id="tspan6655"
         style="line-height:105.99999427999999568%;fill:#1a1a1a">Public Toilet Map</tspan></text>
  </g>
</svg>
